<svg id="Layer_1" data-name="Layer 1" xmlns="http://www.w3.org/2000/svg" viewBox="0 0 425.2 425.2"><defs><style>.cls-1{fill:#b82837;}.cls-2{fill:#fff;}.cls-3{fill:#50301a;}</style></defs><title>en</title><path class="cls-1" d="M296.79,217.48l-54.16-56.22a6.19,6.19,0,0,1,.16-8.72L299,98.38a6.19,6.19,0,0,1,8.72.16l54.16,56.22a6.18,6.18,0,0,1-.17,8.72l-56.21,54.16A6.19,6.19,0,0,1,296.79,217.48Z"/><path class="cls-1" d="M214.82,132.68l6.6,6.85a6.32,6.32,0,0,0,8.9.17l56-54a6.32,6.32,0,0,0,.16-8.9l-54-56a6.32,6.32,0,0,0-8.9-.17l-56,54a6.26,6.26,0,0,0-1.9,4.16h0a22.29,22.29,0,0,0-7.84,8s-.25.41-.65,1.13c0-.8,0-1.26,0-1.26,0-11.49-8.12-20.5-18.48-20.5s-18.46,9-18.46,20.45c0,.11,0,.56,0,1.28-.34-.61-.57-1-.62-1.08a21.65,21.65,0,0,0-11.86-9.91A17.46,17.46,0,0,0,85,90a21.58,21.58,0,0,0,2.63,15.2s.22.42.64,1.12c-.68-.41-1.08-.63-1.08-.63a21.65,21.65,0,0,0-15.25-2.65,17.54,17.54,0,0,0-11.74,8.4c-5.18,9-1.45,20.49,8.46,26.21,0,0,.41.25,1.13.65H68.54C57,138.32,48,146.43,48,156.8s9,18.46,20.52,18.46c.15,0,.49,0,1.22,0-.7.39-1.08.62-1.08.62a21.64,21.64,0,0,0-9.93,11.88,17.46,17.46,0,0,0,13.15,22.76A21.67,21.67,0,0,0,87.1,207.9s.42-.22,1.12-.65c-.41.69-.62,1.09-.62,1.09a21.61,21.61,0,0,0-2.66,15.25,17.55,17.55,0,0,0,8.41,11.74,17.07,17.07,0,0,0,8.65,2.32c7,0,13.72-4.14,17.55-10.79,0,0,.25-.41.65-1.12,0,.8,0,1.25,0,1.25,0,11.5,8.12,20.5,18.48,20.5s18.46-9,18.46-20.43c0,0,0-.48,0-1.3.39.7.62,1.08.62,1.08a23,23,0,0,0,5.17,6.16h0a6.17,6.17,0,0,0,1.69,3.69l54.16,56.21a6.18,6.18,0,0,0,8.72.17l56.22-54.16a6.19,6.19,0,0,0,.16-8.72L229.72,174a6.19,6.19,0,0,0-8.72-.16l-6.8,6.55h0a23,23,0,0,0-5.46-4.39l-1.12-.64h1.26c11.49,0,20.5-8.12,20.5-18.48s-9-18.46-20.49-18.46h-1.25c.71-.39,1.09-.63,1.09-.63A22.87,22.87,0,0,0,214.82,132.68Z"/><path class="cls-2" d="M202.6,140.61c.72,0,1.43,0,2.13.12,2.11-.15,3.63-.15,4.17-.14,10.25,0,18.27,7.14,18.27,16.26s-8,16.27-18.3,16.27h-.56c-.58,0-1.88,0-3.62-.15-.7.07-1.41.12-2.13.12H202c-.61,0-1.69,0-3.11-.11,1.93,1,3.13,1.68,3.21,1.74a20.42,20.42,0,0,1,1.79,1.17c2.12,1,3.48,1.85,3.68,2a19.34,19.34,0,0,1,8.9,10.63A15.25,15.25,0,0,1,205,208.43,19.53,19.53,0,0,1,191.29,206s-1.45-.79-3.53-2.19a21.08,21.08,0,0,1-1.89-1c-.08,0-1.3-.7-3.1-1.9,1.2,1.79,1.87,3,1.92,3.11a20.18,20.18,0,0,1,1,1.91c1.4,2.07,2.17,3.5,2.2,3.54a19.39,19.39,0,0,1,2.39,13.66,15.34,15.34,0,0,1-7.34,10.29,15,15,0,0,1-7.56,2c-6.2,0-12.21-3.73-15.7-9.78,0,0-.85-1.39-2-3.66a20.17,20.17,0,0,1-1.16-1.78c0-.07-.77-1.26-1.73-3.2.14,2.15.11,3.55.11,3.66a21,21,0,0,1-.12,2.12c.18,2.51.13,4.13.13,4.18,0,10.24-7.14,18.27-16.25,18.27s-16.27-8-16.27-18.33c0,0,0-1.64.13-4.16a21.19,21.19,0,0,1-.11-2.12c0-.09,0-1.48.11-3.64-1,1.94-1.69,3.13-1.74,3.22a20.42,20.42,0,0,1-1.17,1.79c-1.1,2.25-1.95,3.64-2,3.68-3.46,6-9.46,9.72-15.66,9.72a14.87,14.87,0,0,1-7.55-2,15.37,15.37,0,0,1-7.35-10.29,19.48,19.48,0,0,1,2.43-13.73s.78-1.43,2.19-3.52c.29-.64.6-1.27,1-1.9,0-.07.71-1.29,1.91-3.09-1.79,1.2-3,1.87-3.11,1.92a20.05,20.05,0,0,1-1.91,1c-2.09,1.41-3.5,2.18-3.54,2.2a19.55,19.55,0,0,1-13.67,2.4,15.26,15.26,0,0,1-11.5-19.93,19.38,19.38,0,0,1,9-10.66s1.41-.87,3.66-2c.57-.41,1.16-.8,1.79-1.17.07,0,1.26-.77,3.2-1.72-1.41.09-2.5.11-3.11.11h-.55c-.72,0-1.43,0-2.13-.11-1.72.12-3,.14-3.58.14h-.59c-10.24,0-18.27-7.14-18.27-16.25s8-16.28,18.36-16.28c.66,0,2.13,0,4.12.14.7-.07,1.41-.11,2.13-.11.09,0,1.48,0,3.64.1-1.94-1-3.13-1.68-3.22-1.73-.62-.36-1.21-.76-1.79-1.17-2.24-1.1-3.64-1.95-3.68-2-8.87-5.12-12.25-15.32-7.69-23.21a15.34,15.34,0,0,1,10.29-7.35,19.43,19.43,0,0,1,13.72,2.42s1.45.79,3.52,2.19c.64.29,1.28.61,1.91,1,.07,0,1.29.71,3.09,1.91-1.2-1.79-1.87-3-1.92-3.11-.36-.63-.68-1.27-1-1.91-1.4-2.09-2.17-3.51-2.2-3.55a19.38,19.38,0,0,1-2.39-13.66A15.26,15.26,0,0,1,107.1,79a19.46,19.46,0,0,1,10.65,9c.11.18.93,1.54,2,3.68a18.8,18.8,0,0,1,1.16,1.78c0,.07.77,1.26,1.73,3.2-.14-2.16-.11-3.56-.11-3.66,0-.72.05-1.43.12-2.13-.17-2.46-.13-4.07-.13-4.18,0-10.24,7.14-18.26,16.25-18.26S155,76.39,155,86.69c0,0,0,1.65-.14,4.16A21.19,21.19,0,0,1,155,93c0,.08,0,1.48-.1,3.63,1-1.93,1.68-3.13,1.73-3.22.36-.62.76-1.21,1.17-1.78,1.1-2.26,1.95-3.65,2-3.69A19.35,19.35,0,0,1,170.39,79a15.25,15.25,0,0,1,19.92,11.5,19.41,19.41,0,0,1-2.43,13.72s-.78,1.44-2.19,3.53a21,21,0,0,1-1,1.89c0,.08-.71,1.3-1.91,3.1,1.79-1.2,3-1.87,3.11-1.92a20.18,20.18,0,0,1,1.91-1c2.09-1.41,3.5-2.18,3.55-2.2a19.37,19.37,0,0,1,13.66-2.39,15.36,15.36,0,0,1,10.28,7.33c4.56,7.91,1.18,18.11-7.74,23.27,0,0-1.4.85-3.67,2-.57.41-1.16.8-1.78,1.16-.07,0-1.26.77-3.2,1.73C201.1,140.58,202.5,140.61,202.6,140.61Z"/><path class="cls-1" d="M84.68,169.26c8.83-1.69,28-6.56,41.18-10.18a12.92,12.92,0,0,1-.21-2.26,12.76,12.76,0,0,1,.22-2.32c-13.18-3.62-32.35-8.49-41.19-10.18a53.19,53.19,0,0,0-9.38-.91h-.4c-8.58,0-15.27,5.87-15.27,13.36s6.69,13.39,15.22,13.39A52.06,52.06,0,0,0,84.68,169.26Z"/><path class="cls-1" d="M100.92,116.25c5.88,6.81,19.68,21,29.39,30.57a13.06,13.06,0,0,1,4-2.3c-3.45-13.21-8.82-32.24-11.77-40.74a52.16,52.16,0,0,0-4.11-8.93c-3-5.21-8.07-8.18-13.06-8.18a12.26,12.26,0,0,0-6.15,1.65c-6.5,3.75-8.24,12.48-4,19.88A51.87,51.87,0,0,0,100.92,116.25Z"/><path class="cls-1" d="M148.75,148.39a13.09,13.09,0,0,1,2.3,4c13.22-3.46,32.21-8.82,40.7-11.77a50.91,50.91,0,0,0,8.92-4.1,16.3,16.3,0,0,0,7.52-8.92,12.58,12.58,0,0,0-1-10.29A12.94,12.94,0,0,0,195.75,111a16.86,16.86,0,0,0-8.42,2.33,51.06,51.06,0,0,0-8.05,5.7C172.48,124.91,158.35,138.68,148.75,148.39Z"/><path class="cls-1" d="M147.18,146.82c9.72-9.6,23.49-23.74,29.36-30.54a50.63,50.63,0,0,0,5.68-8,16.23,16.23,0,0,0,2.05-11.48,12.52,12.52,0,0,0-6-8.42,12.27,12.27,0,0,0-6.18-1.66,13.5,13.5,0,0,0-4.12.67,16.25,16.25,0,0,0-8.9,7.48,51,51,0,0,0-4.13,9c-2.95,8.49-8.31,27.49-11.77,40.71A13,13,0,0,1,147.18,146.82Z"/><path class="cls-1" d="M136.44,143.94a12.7,12.7,0,0,1,4.6,0c3.61-13.17,8.48-32.31,10.16-41.15a51,51,0,0,0,.91-9.78c0-8.58-5.87-15.26-13.37-15.26S125.36,84.43,125.36,93a52,52,0,0,0,.91,9.82C128,111.63,132.82,130.77,136.44,143.94Z"/><path class="cls-1" d="M76.74,136.45a51.44,51.44,0,0,0,9,4.13c8.5,2.95,27.53,8.32,40.75,11.78a13.07,13.07,0,0,1,2.29-4c-9.6-9.72-23.76-23.52-30.58-29.41a53,53,0,0,0-8-5.68A17.05,17.05,0,0,0,81.68,111a12.9,12.9,0,0,0-11.44,6.29,12.54,12.54,0,0,0-1,10.3A16.2,16.2,0,0,0,76.74,136.45Z"/><path class="cls-1" d="M176.49,197.4c-5.88-6.81-19.64-20.94-29.36-30.54a13,13,0,0,1-4,2.29c3.45,13.21,8.81,32.22,11.77,40.71a51.26,51.26,0,0,0,4.1,8.93c4.29,7.43,12.72,10.28,19.21,6.54s8.25-12.49,4-19.88A51.87,51.87,0,0,0,176.49,197.4Z"/><path class="cls-1" d="M200.68,177.19a51.76,51.76,0,0,0-9-4.12c-8.48-2.95-27.47-8.31-40.68-11.76a13.26,13.26,0,0,1-2.32,4c9.6,9.71,23.73,23.49,30.54,29.36a50.63,50.63,0,0,0,8,5.68,16.28,16.28,0,0,0,11.48,2,12.57,12.57,0,0,0,8.42-6C210.92,189.89,208.07,181.46,200.68,177.19Z"/><path class="cls-1" d="M202.56,143.48a51.07,51.07,0,0,0-9.82.91c-8.83,1.68-27.94,6.54-41.12,10.15a12.24,12.24,0,0,1,.22,2.28,12.89,12.89,0,0,1-.23,2.34c13.18,3.62,32.3,8.47,41.13,10.16a51,51,0,0,0,9.78.91c8.58,0,15.26-5.87,15.26-13.37S211.1,143.48,202.56,143.48Z"/><path class="cls-1" d="M128.7,165.21a13,13,0,0,1-2.27-4c-13.22,3.46-32.26,8.83-40.76,11.78a51.69,51.69,0,0,0-8.93,4.11c-7.43,4.29-10.28,12.72-6.54,19.21a12.59,12.59,0,0,0,8.43,6,16.17,16.17,0,0,0,11.45-2,51.37,51.37,0,0,0,8-5.69C104.94,188.73,119.1,174.93,128.7,165.21Z"/><path class="cls-1" d="M141,169.71a12.69,12.69,0,0,1-2.24.21,13,13,0,0,1-2.36-.23c-3.62,13.18-8.48,32.33-10.17,41.16a51,51,0,0,0-.91,9.79c0,8.57,5.87,15.26,13.37,15.26s13.38-6.69,13.38-15.22a51.1,51.1,0,0,0-.91-9.83C149.45,202,144.59,182.89,141,169.71Z"/><path class="cls-1" d="M130.27,166.79c-9.72,9.6-23.52,23.76-29.4,30.57a51.15,51.15,0,0,0-5.68,8c-4.29,7.43-2.55,16.16,3.94,19.91a12.54,12.54,0,0,0,10.3,1,16.26,16.26,0,0,0,8.91-7.48,51.86,51.86,0,0,0,4.12-9c3-8.5,8.32-27.51,11.77-40.73A13.08,13.08,0,0,1,130.27,166.79Z"/><path class="cls-1" d="M138.74,146.6A10.23,10.23,0,1,0,149,156.82,10.23,10.23,0,0,0,138.74,146.6Z"/><path class="cls-3" d="M66.7,269.13v0c-1.38.12-1.85.67-1.85,2.29s.48,2.17,1.86,2.29v0h.2l306.6,4.75c3.4-.21,3.66-3.41,3.65-7.36s-.26-7.15-3.66-7.36l-.71,0Z"/><path class="cls-3" d="M66.7,286.15v0c-1.38-.12-1.85-.67-1.85-2.29s.48-2.17,1.86-2.29v0h.2l306.6-4.75c3.4.21,3.66,3.41,3.65,7.36s-.26,7.15-3.66,7.36l-.71,0Z"/><path class="cls-3" d="M332.47,343.27c-.42.5-.2,1.3.53,2.09a.87.87,0,0,0,.75.38c.28-.05.28-.35.28-.63,0-.81-.44-2.61-.85-2.4A1.79,1.79,0,0,0,332.47,343.27Z"/><path class="cls-3" d="M345.24,354.79c-.19.09-.41.38-.37.53s.34.34.56.36a4.25,4.25,0,0,0,2.45-.5.75.75,0,0,0,.36-.59c0-.13-.37-.26-.6-.31a5.37,5.37,0,0,0-1,0A14.76,14.76,0,0,0,345.24,354.79Z"/><path class="cls-3" d="M335.68,345.75a1.52,1.52,0,0,0,.31-1.43c0-.06-.13-.13-.2-.13a.5.5,0,0,0-.51.36c-.2.45-.35,1.3-.08,1.47S335.56,345.87,335.68,345.75Z"/><path class="cls-3" d="M322.79,358.91c0-.37-.58-.57-1.53-.67-1.66-.19-2.25-.23-2.13.7-.12.56.51.81,1.79.72S322.73,359.31,322.79,358.91Z"/><path class="cls-3" d="M330.67,371.09c.14-.18.32-.27.44-.46a1.71,1.71,0,0,0,.31-.78,1.22,1.22,0,0,0-.29-.74c-.37-.39-.88-.13-1.12.5s-.33,2.38,0,2.48C330.5,372.21,330.46,371.38,330.67,371.09Z"/><path class="cls-3" d="M332,371.35a1.63,1.63,0,0,0,.18.82c.23.51.51.46.63-.11a8.1,8.1,0,0,0,.18-1.23c.05-.75-.25-1.46-.52-1.32S332.08,370.73,332,371.35Z"/><path class="cls-3" d="M349.08,356.52s-.07-.25-.17-.22h-.16c-.4.07-1,.1-1.48.2-.12,0-.35.31,0,.46a3.6,3.6,0,0,0,1.28.52A.61.61,0,0,0,349.08,356.52Z"/><polygon class="cls-3" points="345.21 368.89 345.21 368.89 345.24 368.84 345.24 368.82 345.27 368.82 345.21 368.89 345.21 368.89"/><polygon class="cls-3" points="345.09 363.76 345.09 363.76 345.07 363.76 345.07 363.76 345.07 363.79 345.07 363.79 345.06 363.83 345.06 363.93 345.06 363.93 345.03 363.95 345.03 363.97 345.03 364 345 364.02 345 364.02 345.02 364.09 345.02 364.14 344.96 364.25 344.96 364.25 344.98 364.35 344.98 364.35 344.96 364.35 344.96 364.4 344.96 364.4 344.98 364.35 344.98 364.35 344.98 364.38 345.01 364.35 345.01 364.35 345.01 364.35 345 364.38 345 364.4 345 364.4 344.95 364.44 344.95 364.47 344.95 364.49 344.92 364.56 344.92 364.56 344.92 364.56 344.92 364.61 344.94 364.63 344.94 364.63 344.92 364.63 344.92 364.66 344.92 364.63 344.92 364.63 344.92 364.63 344.92 364.63 344.89 364.63 344.87 364.68 344.86 364.72 344.84 364.75 344.84 364.75 344.84 364.77 344.86 364.8 344.88 364.85 344.9 364.85 344.9 364.87 344.9 364.87 344.88 364.85 344.88 364.85 344.88 364.85 344.86 364.84 344.83 364.87 344.81 364.89 344.8 364.91 344.8 364.91 344.83 364.96 344.85 364.99 344.85 365.01 344.84 365.06 344.84 365.06 344.81 365.13 344.78 365.22 344.77 365.36 344.77 365.36 344.73 365.4 344.7 365.48 344.69 365.55 344.64 365.59 344.64 365.59 344.66 365.62 344.64 365.64 344.64 365.66 344.63 365.71 344.63 365.71 344.63 365.73 344.61 365.75 344.61 365.75 344.61 365.75 344.58 365.75 344.56 365.75 344.56 365.75 344.56 365.73 344.59 365.71 344.61 365.69 344.59 365.68 344.59 365.68 344.56 365.7 344.54 365.7 344.51 365.73 344.51 365.75 344.49 365.75 344.49 365.75 344.49 365.77 344.51 365.8 344.56 365.78 344.56 365.78 344.56 365.8 344.56 365.82 344.58 365.85 344.58 365.85 344.53 365.89 344.52 365.92 344.5 365.96 344.47 366.01 344.47 366.01 344.4 366.03 344.37 366.1 344.37 366.1 344.39 366.12 344.39 366.15 344.41 366.2 344.41 366.2 344.36 366.22 344.36 366.24 344.36 366.26 344.33 366.31 344.33 366.36 344.33 366.36 344.33 366.36 344.31 366.36 344.28 366.38 344.28 366.38 344.28 366.43 344.25 366.47 344.2 366.54 344.15 366.63 344.14 366.68 344.14 366.73 344.14 366.73 344.09 366.82 344.06 366.86 344.06 366.91 344.03 366.91 344.03 366.91 344.04 366.88 344.01 366.88 344.01 366.88 343.99 366.88 343.99 366.91 343.98 366.95 343.98 366.95 343.96 366.93 343.96 366.93 343.96 366.93 343.96 366.95 343.93 366.97 343.93 367 343.95 367.02 343.95 367.02 343.93 367.02 343.9 367.04 343.88 367.09 343.88 367.09 343.9 367.11 343.9 367.14 343.9 367.14 343.87 367.16 343.85 367.23 343.85 367.23 343.82 367.23 343.82 367.23 343.84 367.25 343.84 367.25 343.82 367.28 343.8 367.27 343.8 367.27 343.77 367.3 343.77 367.3 343.75 367.3 343.75 367.3 343.74 367.37 343.71 367.41 343.71 367.41 343.62 367.48 343.52 367.54 343.39 367.61 343.37 367.65 343.34 367.7 343.34 367.7 343.24 367.79 343.19 367.86 343.11 367.9 343.11 367.9 343.06 367.94 342.99 368.01 342.94 368.05 342.86 368.07 342.86 368.07 342.76 368.18 342.63 368.27 342.37 368.4 342.37 368.4 342.27 368.46 342.19 368.53 342.09 368.59 341.99 368.63 341.99 368.63 341.87 368.68 341.75 368.71 341.55 368.84 341.55 368.84 341.43 368.88 341.29 368.92 341.29 368.92 341.26 368.99 341.18 369.04 341.04 369.05 341.04 369.05 340.99 369.07 340.96 369.09 340.89 369.13 340.89 369.13 340.82 369.13 340.79 369.15 340.77 369.17 340.77 369.17 340.65 369.17 340.53 369.18 340.44 369.18 340.32 369.14 340.27 369.19 340.27 369.19 339.84 369.11 339.84 369.11 339.77 369.11 339.7 369.11 339.54 369.05 339.54 369.05 339.42 369.02 339.35 368.99 339.31 368.94 339.31 368.94 339.28 369.01 339.25 369.03 339.23 369.03 339.23 369.03 339.13 369.05 339.06 369.02 339 368.96 338.9 368.94 338.9 368.94 338.86 368.91 338.81 368.91 338.74 368.9 338.69 368.9 338.69 368.9 338.62 368.87 338.53 368.86 338.46 368.86 338.36 368.83 338.36 368.83 338.18 368.79 337.98 368.78 337.56 368.73 337.56 368.73 337.61 368.73 337.63 368.71 337.63 368.66 337.68 368.67 337.68 368.64 337.68 368.64 337.61 368.62 337.57 368.61 337.52 368.61 337.47 368.65 337.47 368.65 337.37 368.65 337.31 368.6 337.26 368.57 337.17 368.54 337.17 368.54 337.01 368.43 336.91 368.4 336.82 368.4 336.82 368.4 336.66 368.31 336.5 368.23 336.36 368.13 336.31 368.08 336.25 368 336.25 368 336.18 368 336.11 367.99 336.11 367.99 336.04 367.94 335.97 367.89 335.97 367.89 335.9 367.91 335.85 367.9 335.85 367.9 335.74 367.83 335.65 367.75 335.65 367.75 335.6 367.75 335.58 367.75 335.58 367.75 335.58 367.75 335.53 367.76 335.5 367.74 335.48 367.69 335.48 367.69 335.41 367.71 335.39 367.69 335.32 367.61 335.32 367.61 335.32 367.68 335.32 367.7 335.34 367.71 335.34 367.71 335.27 367.68 335.22 367.65 335.23 367.6 335.23 367.6 335.18 367.58 335.16 367.55 335.13 367.57 335.13 367.57 335.11 367.57 335.11 367.57 335.11 367.57 335.11 367.6 335.11 367.6 334.92 367.51 334.74 367.43 334.74 367.43 334.72 367.38 334.7 367.36 334.6 367.32 334.6 367.32 334.6 367.35 334.6 367.35 334.58 367.35 334.56 367.32 334.53 367.32 334.51 367.3 334.51 367.32 334.51 367.32 334.42 367.24 334.33 367.16 334.33 367.16 334.33 367.16 334.31 367.14 334.33 367.14 334.33 367.12 334.33 367.09 334.33 367.09 334.31 367.09 334.28 367.11 334.28 367.14 334.28 367.14 334.28 367.14 334.24 367.11 334.24 367.09 334.24 367.09 334.19 367.11 334.19 367.11 334.19 367.11 334.17 367.08 334.14 367.08 334.14 367.08 334.14 367.11 334.14 367.11 334.05 367.05 333.96 366.97 333.96 366.97 333.89 366.94 333.84 366.92 333.79 366.94 333.79 366.94 333.7 366.91 333.65 366.88 333.63 366.83 333.63 366.83 333.71 366.84 333.73 366.82 333.76 366.77 333.76 366.77 333.74 366.72 333.72 366.67 333.63 366.6 333.58 366.54 333.56 366.52 333.56 366.47 333.59 366.4 333.62 366.4 333.62 366.4 333.61 366.43 333.64 366.45 333.66 366.45 333.66 366.45 333.68 366.43 333.69 366.41 333.73 366.41 333.73 366.41 333.76 366.44 333.76 366.44 333.83 366.44 333.87 366.44 333.89 366.49 333.89 366.49 333.94 366.47 333.99 366.48 334.08 366.51 334.13 366.51 334.13 366.51 334.13 366.51 334.25 366.49 334.4 366.48 334.65 366.52 334.65 366.52 334.68 366.54 334.72 366.55 334.72 366.55 334.73 366.5 334.78 366.45 334.78 366.45 334.82 366.46 334.85 366.44 334.88 366.41 334.9 366.42 334.9 366.42 334.99 366.42 335.04 366.4 335.09 366.38 335.09 366.38 335.24 366.34 335.41 366.28 335.55 366.24 335.63 366.18 335.68 366.13 335.68 366.13 335.71 366.09 335.73 366.06 335.76 366.04 335.76 366 335.76 366 335.81 365.97 335.86 365.93 335.86 365.93 335.84 365.88 335.84 365.86 335.84 365.83 335.92 365.79 335.92 365.79 335.89 365.77 335.9 365.72 335.9 365.72 335.92 365.7 335.95 365.65 335.95 365.65 336.1 365.56 336.15 365.52 336.24 365.5 336.24 365.5 336.24 365.5 336.22 365.48 336.22 365.48 336.27 365.43 336.3 365.39 336.35 365.34 336.4 365.3 336.4 365.3 336.38 365.25 336.41 365.2 336.46 365.11 336.46 365.11 336.51 365.09 336.51 365.09 336.54 365.05 336.54 364.97 336.57 364.93 336.57 364.93 336.6 364.86 336.62 364.81 336.62 364.81 336.63 364.62 336.67 364.46 336.65 364.39 336.7 364.39 336.7 364.39 336.7 364.37 336.68 364.36 336.68 364.36 336.65 364.36 336.65 364.36 336.6 364.33 336.6 364.33 336.58 364.29 336.59 364.24 336.59 364.24 336.54 364.21 336.54 364.19 336.52 364.16 336.5 364.14 336.5 364.14 336.5 364.11 336.48 364.09 336.45 364.09 336.46 364.06 336.38 364.08 336.38 364.08 336.41 364.06 336.39 364.04 336.39 364.04 336.36 364.06 336.34 364.03 336.32 364.01 336.29 363.98 336.25 363.96 336.25 363.96 336.21 363.88 336.19 363.83 336.14 363.83 336.14 363.83 336.14 363.78 336.1 363.73 336.03 363.68 335.98 363.68 335.98 363.68 335.98 363.65 335.96 363.6 335.96 363.6 335.94 363.6 335.92 363.58 335.92 363.55 335.89 363.57 335.89 363.57 335.85 363.5 335.85 363.43 335.81 363.38 335.76 363.35 335.71 363.37 335.71 363.37 335.72 363.33 335.7 363.28 335.67 363.25 335.68 363.2 335.68 363.2 335.66 363.18 335.66 363.18 335.63 363.18 335.63 363.18 335.63 363.18 335.63 363.15 335.63 363.15 335.63 363.15 335.61 363.13 335.59 363.1 335.57 363.08 335.54 363.1 335.52 363.07 335.49 363.1 335.49 363.1 335.47 363.07 335.45 363.05 335.45 363.02 335.45 363.02 335.48 363 335.45 362.98 335.43 362.93 335.43 362.93 335.39 362.92 335.37 362.87 335.32 362.8 335.32 362.8 335.31 362.7 335.29 362.65 335.26 362.61 335.26 362.61 335.27 362.56 335.27 362.51 335.27 362.46 335.2 362.46 335.2 362.46 335.19 362.36 335.17 362.27 335.17 362.27 335.17 362.27 335.17 362.27 335.12 362.22 335.03 362.19 335.03 362.19 335.06 362.14 335.04 362.09 335.01 362.04 335.04 362 335.04 362 335.04 361.97 335 361.94 334.97 361.94 334.95 361.89 334.95 361.89 334.95 361.92 334.93 361.89 334.93 361.89 334.95 361.85 334.96 361.8 334.94 361.7 334.94 361.7 334.94 361.66 334.92 361.63 334.88 361.58 334.88 361.58 334.79 361.5 334.74 361.48 334.7 361.43 334.7 361.43 334.7 361.43 334.72 361.4 334.7 361.38 334.7 361.38 334.7 361.38 334.68 361.36 334.68 361.36 334.68 361.28 334.69 361.21 334.71 361.17 334.72 361.14 334.76 361.12 334.76 361.12 334.79 361.1 334.81 361.08 334.81 361.08 334.8 361 334.8 360.93 334.8 360.93 334.85 360.89 334.88 360.84 334.88 360.84 334.86 360.77 334.86 360.72 334.89 360.65 334.92 360.61 334.92 360.61 334.92 360.61 334.92 360.58 334.92 360.54 334.92 360.51 334.93 360.47 334.93 360.47 334.95 360.42 334.95 360.42 334.95 360.37 334.96 360.35 334.99 360.28 335.04 360.21 335.06 360.14 335.06 360.14 335.09 360.14 335.12 360.1 335.12 360.07 335.14 360.05 335.14 360.05 335.14 360 335.17 359.93 335.2 359.82 335.2 359.82 335.23 359.8 335.23 359.77 335.23 359.75 335.23 359.75 335.26 359.75 335.26 359.73 335.26 359.7 335.29 359.7 335.29 359.7 335.31 359.66 335.34 359.63 335.39 359.57 335.39 359.57 335.39 359.52 335.37 359.5 335.37 359.5 335.59 359.41 335.69 359.35 335.71 359.3 335.74 359.26 335.74 359.26 335.77 359.16 335.8 359.09 335.84 358.9 335.84 358.9 335.86 358.86 335.89 358.81 335.94 358.79 335.99 358.77 335.99 358.77 336.06 358.68 336.12 358.54 336.12 358.54 336.14 358.55 336.17 358.55 336.19 358.5 336.19 358.5 336.17 358.47 336.17 358.45 336.17 358.45 336.2 358.45 336.22 358.45 336.24 358.48 336.27 358.46 336.27 358.46 336.32 358.41 336.32 358.37 336.35 358.34 336.4 358.32 336.4 358.32 336.42 358.3 336.45 358.28 336.48 358.21 336.53 358.16 336.55 358.17 336.57 358.19 336.57 358.19 336.62 358.19 336.62 358.17 336.64 358.17 336.67 358.17 336.67 358.17 336.72 358.13 336.75 358.08 336.77 358.04 336.82 358.02 336.82 358.02 336.85 358 336.9 357.95 336.88 357.92 336.88 357.92 336.9 357.93 336.92 357.93 336.92 357.9 336.92 357.9 336.95 357.88 336.97 357.88 337.02 357.86 337.02 357.84 337.02 357.84 337.05 357.82 337.07 357.8 337.1 357.8 337.1 357.77 337.1 357.77 337.15 357.73 337.17 357.73 337.18 357.71 337.22 357.69 337.23 357.66 337.23 357.66 337.37 357.65 337.44 357.68 337.48 357.73 337.48 357.73 337.55 357.73 337.6 357.71 337.65 357.69 337.7 357.69 337.7 357.67 337.68 357.62 337.68 357.62 337.73 357.6 337.8 357.58 337.8 357.58 337.78 357.6 337.8 357.6 337.8 357.6 337.8 357.6 337.8 357.58 337.83 357.56 337.88 357.54 337.88 357.54 337.9 357.54 337.92 357.54 337.97 357.54 337.97 357.54 338.04 357.57 338.11 357.6 338.18 357.6 338.25 357.59 338.25 357.59 338.28 357.56 338.31 357.52 338.31 357.52 338.33 357.52 338.38 357.5 338.43 357.5 338.47 357.5 338.47 357.5 338.52 357.51 338.54 357.51 338.57 357.49 338.57 357.49 338.55 357.46 338.52 357.44 338.52 357.44 338.55 357.41 338.58 357.39 338.58 357.39 338.57 357.42 338.6 357.42 338.6 357.42 338.6 357.37 338.63 357.35 338.65 357.32 338.65 357.32 338.7 357.35 338.72 357.35 338.72 357.35 338.75 357.33 338.79 357.33 338.79 357.33 338.79 357.36 338.82 357.36 338.87 357.34 338.87 357.34 338.97 357.23 339.07 357.16 339.07 357.16 339.07 357.11 339.05 357.11 339.02 357.09 339.02 357.09 339.08 357.02 339.15 357 339.15 357 339.2 356.96 339.27 356.94 339.27 356.94 339.3 356.92 339.32 356.92 339.34 356.92 339.37 356.89 339.37 356.89 339.4 356.85 339.45 356.83 339.47 356.83 339.52 356.79 339.52 356.79 339.54 356.79 339.54 356.79 339.57 356.76 339.57 356.76 339.67 356.73 339.67 356.68 339.67 356.68 339.71 356.7 339.74 356.71 339.81 356.66 339.81 356.66 339.88 356.69 339.95 356.67 340.03 356.68 340.1 356.7 340.1 356.7 340.26 356.74 340.36 356.75 340.43 356.7 340.43 356.7 340.48 356.73 340.55 356.73 340.62 356.74 340.69 356.77 340.69 356.77 340.71 356.77 340.76 356.77 340.78 356.77 340.8 356.8 340.8 356.8 340.89 356.85 340.99 356.93 340.99 356.9 340.99 356.9 341.03 356.95 341.08 356.96 341.13 356.99 341.12 357.06 341.12 357.06 341.14 357.08 341.17 357.08 341.19 357.11 341.16 357.15 341.16 357.15 341.09 357.13 341.05 357.1 340.98 357.07 340.95 357.07 340.93 357.09 340.93 357.09 340.97 357.12 341 357.14 341.06 357.19 341.06 357.19 341.11 357.18 341.16 357.2 341.16 357.2 341.18 357.23 341.23 357.25 341.23 357.25 341.27 357.26 341.32 357.24 341.32 357.24 341.35 357.26 341.42 357.26 341.44 357.27 341.49 357.32 341.49 357.32 341.53 357.32 341.58 357.32 341.65 357.35 341.67 357.38 341.67 357.38 341.75 357.33 341.82 357.34 341.82 357.34 341.91 357.35 341.98 357.4 342.05 357.45 342.09 357.5 342.09 357.5 342.18 357.55 342.27 357.61 342.37 357.66 342.46 357.69 342.46 357.69 342.55 357.74 342.6 357.77 342.67 357.77 342.67 357.77 342.72 357.78 342.74 357.83 342.78 357.9 342.78 357.9 342.78 357.95 342.78 357.97 342.84 358.02 342.91 358.05 342.94 358.08 342.93 358.1 342.93 358.1 343.05 358.16 343.12 358.23 343.22 358.43 343.22 358.43 343.27 358.41 343.29 358.43 343.34 358.46 343.39 358.44 343.39 358.44 343.39 358.44 343.39 358.42 343.39 358.42 343.41 358.47 343.43 358.49 343.46 358.49 343.45 358.52 343.45 358.52 343.45 358.52 343.45 358.56 343.45 358.59 343.45 358.61 343.5 358.64 343.5 358.64 343.42 358.7 343.39 358.75 343.41 358.8 343.39 358.8 343.39 358.8 343.41 358.82 343.44 358.82 343.44 358.82 343.48 358.83 343.48 358.8 343.51 358.78 343.53 358.81 343.53 358.81 343.55 358.83 343.58 358.86 343.6 358.88 343.62 358.91 343.62 358.91 343.67 358.91 343.69 358.86 343.69 358.86 343.72 358.89 343.74 358.89 343.76 358.87 343.81 358.87 343.81 358.87 343.79 358.92 343.78 358.96 343.78 358.96 343.9 359.07 343.92 359.12 343.91 359.19 343.91 359.19 343.89 359.21 343.88 359.23 343.9 359.31 343.9 359.31 343.95 359.36 343.97 359.38 343.97 359.43 343.97 359.43 344.01 359.48 344.06 359.51 344.11 359.49 344.11 359.49 344.08 359.51 344.06 359.53 344.06 359.53 344.1 359.58 344.12 359.61 344.12 359.63 344.12 359.63 344.1 359.65 344.1 359.68 344.1 359.68 344.14 359.68 344.16 359.7 344.16 359.7 344.16 359.78 344.16 359.8 344.13 359.82 344.13 359.82 344.11 359.84 344.11 359.87 344.11 359.87 344.17 359.92 344.19 359.97 344.22 359.99 344.22 359.99 344.24 359.99 344.24 360.02 344.26 360.07 344.28 360.07 344.28 360.07 344.31 360.09 344.33 360.1 344.38 360.1 344.38 360.07 344.38 360.07 344.4 360.1 344.45 360.13 344.49 360.13 344.52 360.15 344.52 360.15 344.51 360.2 344.53 360.25 344.55 360.32 344.55 360.32 344.57 360.35 344.6 360.35 344.6 360.4 344.6 360.4 344.56 360.54 344.56 360.61 344.58 360.68 344.58 360.68 344.57 360.73 344.59 360.78 344.66 360.81 344.66 360.81 344.71 360.81 344.76 360.81 344.71 360.76 344.71 360.76 344.74 360.72 344.79 360.7 344.81 360.68 344.81 360.68 344.82 360.63 344.84 360.61 344.84 360.61 344.87 360.58 344.89 360.58 344.89 360.58 344.89 360.65 344.89 360.65 344.91 360.7 344.9 360.78 344.92 360.89 344.92 360.89 344.96 360.97 344.96 361.02 344.98 361.07 344.98 361.07 344.95 361.09 344.93 361.13 344.93 361.16 344.92 361.21 344.92 361.21 344.9 361.23 344.9 361.23 344.9 361.27 344.9 361.27 344.9 361.27 344.9 361.27 344.94 361.35 344.98 361.4 345.05 361.45 345.05 361.55 345.05 361.55 345.06 361.64 345.08 361.74 345.06 361.74 345.06 361.74 345.06 361.76 345.05 361.79 345.08 361.79 345.08 361.79 345.07 361.93 345.06 362.07 345.06 362.07 345.06 362.12 345.05 362.17 345.05 362.19 345.02 362.24 345.02 362.24 345.05 362.26 345.02 362.28 345.02 362.31 345.04 362.33 345.04 362.33 345.04 362.38 345.04 362.4 345.01 362.45 345.01 362.5 344.99 362.5 344.99 362.5 345.03 362.57 345.03 362.57 345.07 362.55 345.15 362.55 345.15 362.55 345.12 362.57 345.1 362.6 345.12 362.65 345.12 362.65 345.14 362.72 345.16 362.77 345.13 362.88 345.1 362.93 345.1 362.93 345.12 362.93 345.12 362.96 345.1 362.95 345.1 362.95 345.09 363.1 345.06 363.19 345.08 363.26 345.1 363.26 345.1 363.26 345.1 363.29 345.07 363.31 345.07 363.31 345.05 363.31 345.05 363.33 345.07 363.4 345.07 363.4 345.09 363.41 345.09 363.45 345.11 363.5 345.11 363.5 345.06 363.5 345.06 363.52 345.06 363.57 345.06 363.57 345.08 363.6 345.08 363.62 345.07 363.67 345.07 363.67 345.05 363.69 345.05 363.71 345.07 363.74 345.07 363.74 345.1 363.74 345.1 363.74 345.09 363.76 345.09 363.76 345.09 363.76"/><polygon class="cls-3" points="345.06 363.5 345.06 363.52 345.06 363.52 345.06 363.5 345.06 363.5 345.06 363.5"/><polygon class="cls-3" points="345 364.11 345 364.14 345 364.11 345 364.11"/><polygon class="cls-3" points="344.62 365.54 344.59 365.59 344.62 365.54 344.62 365.54"/><polygon class="cls-3" points="344.77 360.67 344.77 360.69 344.77 360.67 344.77 360.67"/><polygon class="cls-3" points="338.04 357.64 338.06 357.62 338.06 357.64 338.04 357.64 338.04 357.64"/><polygon class="cls-3" points="334.29 367.07 334.29 367.04 334.31 367.07 334.31 367.07 334.31 367.07 334.29 367.07 334.29 367.07 334.29 367.07"/><polygon class="cls-3" points="336.31 348.38 336.34 348.35 336.34 348.35 336.38 348.37 336.44 348.36 336.44 348.36 336.38 348.39 336.36 348.45 336.38 348.6 336.38 348.6 336.41 348.6 336.44 348.62 336.51 348.66 336.55 348.68 336.58 348.68 336.61 348.65 336.61 348.65 336.61 348.6 336.57 348.57 336.57 348.57 336.6 348.57 336.67 348.59 336.67 348.59 336.7 348.56 336.73 348.55 336.8 348.57 336.8 348.57 336.83 348.54 336.86 348.51 336.92 348.48 336.98 348.44 337.01 348.46 337.04 348.43 337.15 348.52 337.15 348.52 337.21 348.49 337.28 348.48 337.41 348.49 337.65 348.56 337.65 348.56 337.68 348.53 337.67 348.48 337.6 348.44 337.56 348.39 337.47 348.4 337.47 348.4 337.46 348.38 337.49 348.32 337.55 348.26 337.55 348.26 337.62 348.28 337.66 348.35 337.68 348.5 337.69 348.58 337.73 348.63 337.76 348.62 337.88 348.58 337.88 348.58 337.99 348.59 338.06 348.66 338.14 348.8 338.15 348.88 338.23 348.92 338.29 348.89 338.41 348.82 338.33 348.73 338.68 348.63 338.68 348.63 338.65 348.63 338.65 348.68 338.66 348.74 338.7 348.78 338.58 348.85 338.58 348.85 338.75 348.88 338.85 348.89 338.91 348.86 339.22 349 339.25 348.97 339.25 348.97 339.27 349.09 339.31 349.17 339.39 349.23 339.48 349.22 339.48 349.22 339.42 349.23 339.39 349.26 339.33 349.32 339.33 349.32 339.37 349.34 339.41 349.39 339.41 349.39 339.5 349.37 339.53 349.34 339.59 349.31 339.59 349.31 339.61 349.41 339.58 349.49 339.54 349.65 339.54 349.65 339.65 349.74 339.76 349.83 339.9 349.89 339.97 349.91 340.07 349.89 340.07 349.89 340.17 349.9 340.23 349.92 340.43 349.9 340.63 349.89 340.72 349.88 340.79 349.93 340.79 349.93 340.82 349.89 340.81 349.84 340.81 349.84 340.91 349.83 340.95 349.85 340.98 349.87 341.01 349.82 341.01 349.82 341.05 349.89 341.12 349.91 341.22 349.92 341.32 349.91 341.34 349.85 341.34 349.85 341.5 350.06 341.63 350.25 341.72 350.19 341.82 350.23 341.88 350.19 341.88 350.19 341.86 350.27 341.83 350.3 341.71 350.4 341.65 350.43 341.62 350.46 341.62 350.49 341.73 350.55 341.73 350.55 341.76 350.52 341.79 350.49 341.79 350.49 341.8 350.54 341.77 350.57 341.81 350.62 341.78 350.65 341.78 350.65 341.81 350.67 341.85 350.71 341.83 350.79 341.83 350.79 341.8 350.82 341.77 350.85 341.74 350.88 341.68 350.92 341.79 350.98 341.73 351.01 341.73 351.01 341.87 351.1 341.91 351.15 342.01 351.13 342.01 351.18 342.01 351.18 341.88 351.15 341.84 351.13 341.81 351.11 341.81 351.11 341.75 351.14 341.75 351.19 341.83 351.29 341.9 351.35 341.91 351.4 341.89 351.46 341.92 351.48 341.92 351.48 341.86 351.49 341.8 351.52 341.77 351.58 341.77 351.6 341.81 351.83 341.91 351.9 341.82 351.99 341.86 352.01 341.86 352.01 341.83 352.04 341.84 352.09 341.87 352.11 341.88 352.16 341.88 352.16 341.85 352.16 341.82 352.19 341.75 352.18 341.75 352.18 341.67 352.27 341.61 352.32 341.51 352.36 341.46 352.45 341.46 352.45 341.39 352.43 341.36 352.41 341.32 352.36 341.31 352.29 341.24 352.25 341.15 352.33 341.15 352.33 341.18 352.36 341.22 352.4 341.13 352.42 341.13 352.42 341.18 352.33 341.2 352.23 341.23 352.17 341.22 352.14 341.22 352.14 341.12 352.11 341.08 352.08 341.01 352.04 341.01 352.04 340.95 352.05 340.85 352.09 340.7 352.16 341 352.2 341 352.2 340.93 352.21 340.9 352.19 340.83 352.2 340.81 352.23 340.81 352.23 340.81 352.28 340.85 352.32 340.88 352.32 340.98 352.31 340.99 352.36 340.99 352.36 340.99 352.36 340.92 352.34 340.82 352.33 340.76 352.36 340.73 352.42 340.73 352.42 340.74 352.49 340.78 352.54 340.82 352.56 340.85 352.56 340.85 352.56 340.86 352.61 340.83 352.64 340.83 352.64 340.82 352.59 340.78 352.54 340.71 352.47 340.71 352.47 340.64 352.48 340.61 352.51 340.61 352.51 340.65 352.56 340.69 352.63 340.68 352.73 340.65 352.79 340.69 352.84 340.73 352.88 340.8 352.9 340.8 352.9 340.88 352.81 340.87 352.71 340.99 352.87 340.99 352.87 340.95 352.83 340.92 352.81 340.85 352.81 340.82 352.84 340.77 352.93 340.7 352.94 340.67 352.94 340.67 352.94 340.68 353.02 340.72 353.04 340.75 353.06 340.78 353 340.78 353 340.75 353.04 340.75 353.06 340.76 353.11 340.76 353.11 340.83 353.15 340.9 353.2 340.97 353.21 341.04 353.23 341.1 353.19 341.04 353.23 341.04 353.23 341.07 353.25 341.14 353.27 341.05 353.33 341.05 353.33 341.02 353.31 340.99 353.34 340.87 353.41 340.94 353.45 340.94 353.45 340.9 353.45 340.87 353.46 340.8 353.44 340.74 353.43 340.71 353.48 341.06 353.64 341.06 353.64 341.03 353.67 341 353.7 341.01 353.75 341.01 353.75 340.98 353.78 340.92 353.81 340.98 353.81 340.99 353.86 340.93 353.87 340.93 353.87 340.87 353.9 340.8 353.93 340.75 354.02 340.69 354.1 340.67 354.13 340.6 354.14 340.74 354.2 340.74 354.2 340.71 354.23 340.71 354.26 340.72 354.31 340.72 354.31 340.76 354.33 340.83 354.35 340.76 354.38 340.76 354.38 340.73 354.36 340.7 354.36 340.64 354.4 340.6 354.4 340.53 354.57 340.53 354.57 340.6 354.58 340.66 354.6 340.73 354.59 340.8 354.61 340.77 354.64 340.77 354.64 340.73 354.62 340.67 354.62 340.54 354.64 340.54 354.64 340.51 354.67 340.48 354.7 340.49 354.75 340.49 354.75 340.29 354.75 340.12 354.72 339.92 354.72 339.83 354.74 339.73 354.78 339.81 354.82 339.81 354.82 339.84 354.81 339.77 354.82 339.74 354.83 339.71 354.86 339.75 354.9 339.75 354.9 339.68 354.88 339.58 354.87 339.41 354.79 339.38 354.82 339.34 354.8 339.34 354.8 339.28 354.84 339.29 354.89 339.22 354.85 339.22 354.85 339.19 354.85 339.06 354.87 339.02 354.87 338.99 354.9 339 354.93 339.07 354.99 338.89 354.89 338.89 354.89 338.9 354.91 338.87 354.94 338.88 355.02 338.88 355.02 338.87 354.94 338.83 354.9 338.72 354.81 338.72 354.81 338.66 354.84 338.63 354.87 338.52 354.83 338.43 354.82 338.36 354.83 338.33 354.88 338.33 354.88 338.3 354.86 338.27 354.87 338.17 354.88 338.11 354.92 338.11 354.92 338.11 354.89 338.07 354.87 338.07 354.87 337.97 354.86 337.91 354.89 337.79 354.96 337.86 355 337.86 355 337.79 354.98 337.78 354.93 337.83 354.82 337.62 354.72 337.54 354.81 337.33 354.74 337.33 354.74 337.3 354.76 337.31 354.82 337.31 354.82 337 354.73 336.83 354.7 336.66 354.67 336.66 354.67 336.73 354.66 336.76 354.63 336.76 354.63 336.75 354.55 336.74 354.53 336.71 354.53 336.71 354.53 336.8 354.47 336.83 354.44 336.85 354.38 336.85 354.38 336.78 354.34 336.74 354.27 336.67 354.23 336.61 354.26 336.58 354.29 336.58 354.29 336.58 354.32 336.62 354.34 336.62 354.34 336.56 354.37 336.53 354.4 336.53 354.4 336.56 354.42 336.63 354.42 336.63 354.42 336.61 354.5 336.55 354.58 336.55 354.58 336.57 354.5 336.54 354.45 336.5 354.43 336.41 354.52 336.47 354.46 336.47 354.46 336.37 354.45 336.31 354.46 336.18 354.48 336.05 354.49 335.95 354.48 335.88 354.44 335.82 354.55 335.82 354.55 335.76 354.53 335.69 354.51 335.49 354.49 335.39 354.48 335.28 354.44 335.21 354.4 335.17 354.32 335.11 354.36 335.11 354.36 335.11 354.38 335.14 354.33 335.17 354.32 335.1 354.28 335.1 354.28 335.16 354.27 335.19 354.25 335.19 354.25 335.19 354.22 335.12 354.23 335.06 354.24 335.06 354.24 335.1 354.05 335.17 353.86 335.23 353.77 335.29 353.71 335.38 353.65 335.5 353.61 335.5 353.61 335.36 353.52 335.22 353.44 335.01 353.39 334.81 353.39 334.81 353.39 334.79 353.44 334.76 353.48 334.76 353.48 334.7 353.51 334.63 353.49 334.52 353.43 334.45 353.36 334.41 353.34 334.32 353.35 334.29 353.41 334.18 353.04 334.25 353.08 334.25 353.08 334.33 352.94 334.38 352.88 334.41 352.8 334.33 352.75 334.41 352.8 334.41 352.8 334.43 352.74 334.43 352.72 334.42 352.64 334.38 352.57 334.37 352.54 334.4 352.49 334.4 352.49 334.36 352.42 334.31 352.35 334.35 352.16 334.34 352.08 334.33 352 334.29 351.93 334.19 351.89 334.19 351.89 334.17 351.79 334.17 351.74 334.2 351.71 334.2 351.71 334.16 351.69 334.09 351.68 334.09 351.68 334.11 351.57 334.16 351.46 334.22 351.37 334.34 351.31 334.27 351.29 334.33 351.23 334.33 351.23 334.23 351.22 334.16 351.2 334.15 351.15 334.18 351.12 334.24 351.04 334.29 350.95 334.28 350.87 334.28 350.87 334.35 350.87 334.37 350.83 334.37 350.83 334.36 350.76 334.33 350.74 334.29 350.72 334.29 350.72 334.35 350.68 334.34 350.61 334.31 350.56 334.26 350.51 334.26 350.51 334.32 350.4 334.4 350.29 334.45 350.18 334.44 350.13 334.4 350.08 334.4 350.08 334.35 350.14 334.32 350.17 334.29 350.18 334.31 350.14 334.31 350.14 334.28 350.1 334.27 350.07 334.31 350.09 334.31 350.09 334.37 350.04 334.39 350 334.39 349.98 334.35 349.93 334.35 349.93 334.38 349.93 334.41 349.9 334.41 349.9 334.37 349.83 334.33 349.81 334.2 349.75 334.1 349.73 333.99 349.67 333.99 349.67 334.05 349.64 334.08 349.63 334.11 349.6 334.11 349.6 334.06 349.48 334.06 349.45 334.07 349.3 334.07 349.3 334.11 349.37 334.18 349.39 334.32 349.42 334.32 349.42 334.35 349.42 334.34 349.37 334.33 349.31 334.33 349.31 334.34 349.37 334.38 349.41 334.41 349.41 334.41 349.41 334.35 349.44 334.32 349.47 334.32 349.47 334.33 349.5 334.36 349.52 334.43 349.56 334.43 349.56 334.53 349.52 334.62 349.46 334.73 349.34 334.73 349.34 334.7 349.32 334.63 349.3 334.54 349.34 334.54 349.34 334.59 349.28 334.66 349.3 334.7 349.32 334.76 349.33 334.76 349.33 334.83 349.3 334.82 349.25 334.81 349.17 334.74 349.16 334.74 349.16 334.81 349.17 334.84 349.17 334.84 349.17 334.86 349.09 334.92 349 334.97 348.92 335.06 348.85 335.06 348.85 335.1 348.9 335.17 348.89 335.26 348.85 335.32 348.82 335.32 348.82 335.32 348.85 335.39 348.86 335.52 348.85 335.52 348.85 335.65 348.83 335.81 348.78 335.93 348.71 335.99 348.68 336.01 348.6 336.01 348.6 336.05 348.59 336.11 348.61 336.15 348.61 336.18 348.58 336.14 348.56 336.14 348.56 336.17 348.5 336.13 348.48 336.09 348.43 336.09 348.41 336.12 348.38 336.12 348.38 336.15 348.37 336.22 348.39 336.25 348.38 336.31 348.38 336.31 348.38 336.31 348.38"/><polygon class="cls-3" points="338.44 348.58 338.35 348.6 338.35 348.6 338.32 348.63 338.31 348.6 338.37 348.51 338.43 348.51 338.44 348.58 338.44 348.58"/><polygon class="cls-3" points="333.97 351.74 333.97 351.74 333.98 351.82 333.98 351.85 333.96 351.9 334.1 351.99 334.1 351.99 334.03 351.94 333.96 351.9 333.92 351.83 333.94 351.75 333.97 351.74 333.97 351.74"/><polygon class="cls-3" points="340.78 352.05 340.78 352.05 340.75 352.05 340.69 352.09 340.69 352.14 340.56 352.08 340.61 351.99 340.61 351.99 340.68 352.04 340.75 352.05 340.78 352.05 340.78 352.05 340.78 352.05"/><polygon class="cls-3" points="342.31 352.2 342.22 352.22 342.21 352.14 342.3 352.13 342.31 352.2 342.31 352.2"/><polygon class="cls-3" points="342.37 352.35 342.37 352.38 342.19 352.3 342.19 352.3 342.23 352.29 342.3 352.31 342.37 352.35 342.37 352.35 342.37 352.35"/><polygon class="cls-3" points="342.38 352.69 342.24 352.6 342.37 352.59 342.38 352.69 342.38 352.69"/><polygon class="cls-3" points="335.39 353.99 335.3 354.07 335.3 354.07 335.26 354.03 335.25 353.98 335.28 353.92 335.34 353.89 335.34 353.89 335.35 353.94 335.36 353.99 335.39 353.99 335.39 353.99 335.39 353.99"/><polygon class="cls-3" points="335.64 354.18 335.64 354.18 335.65 354.24 335.59 354.27 335.5 354.31 335.5 354.31 335.53 354.28 335.52 354.25 335.52 354.2 335.44 354.16 335.4 354.09 335.4 354.09 335.54 354.12 335.61 354.14 335.64 354.18 335.64 354.18 335.64 354.18"/><polygon class="cls-3" points="335.67 354.36 335.67 354.36 335.74 354.4 335.77 354.43 335.84 354.42 335.75 354.51 335.75 354.51 335.72 354.51 335.69 354.49 335.65 354.44 335.57 354.4 335.54 354.4 335.51 354.43 335.51 354.43 335.51 354.43 335.48 354.41 335.37 354.38 335.31 354.36 335.31 354.36 335.51 354.38 335.61 354.4 335.67 354.36 335.67 354.36 335.67 354.36"/><polygon class="cls-3" points="340.91 353.76 340.77 353.68 340.91 353.74 340.91 353.76 340.91 353.76"/><polygon class="cls-3" points="338.03 355.31 337.97 355.35 337.89 355.25 337.89 355.25 337.96 355.27 338.03 355.29 338.03 355.31 338.03 355.31 338.03 355.31"/><polygon class="cls-3" points="332.68 360.48 332.64 360.6 332.66 360.6 332.66 360.6 332.64 360.73 332.64 360.81 332.65 360.88 332.69 360.89 332.69 360.89 332.67 360.94 332.67 361.02 332.69 361.08 332.71 361.12 332.75 361.13 332.75 361.13 332.74 361.27 332.75 361.39 332.79 361.62 332.84 361.86 332.9 362.12 332.9 362.12 332.87 362.12 332.85 362.15 332.79 362.2 332.79 362.2 332.81 362.24 332.78 362.3 332.73 362.35 332.66 362.42 332.64 362.44 332.62 362.48 332.52 362.75 332.52 362.75 332.61 362.76 332.7 362.75 332.78 362.75 332.84 362.75 332.88 362.79 332.88 362.79 332.78 362.77 332.7 362.77 332.61 362.81 332.57 362.83 332.55 362.88 332.55 362.88 332.56 362.92 332.59 362.95 332.65 363.01 332.65 363.01 332.72 363.03 332.79 363.01 332.85 363.03 332.92 363.04 332.92 363.04 332.89 363.04 332.87 363.04 332.84 363.09 332.83 363.13 332.81 363.17 332.81 363.17 332.88 363.24 332.96 363.32 333.04 363.4 333.09 363.42 333.15 363.42 333.15 363.42 333.11 363.46 333.09 363.5 333.08 363.6 333.08 363.6 333.16 363.65 333.24 363.67 333.32 363.73 333.36 363.79 333.36 363.79 333.33 363.82 333.28 363.85 333.16 363.89 333.12 363.9 333.11 363.94 333.1 363.98 333.15 364.03 333.15 364.03 333.12 364.06 333.1 364.06 333.03 364.07 333.03 364.15 333 364.15 333 364.15 333 364.18 333 364.2 333.05 364.22 333.08 364.23 333.13 364.24 333.28 364.24 333.29 364.32 333.29 364.32 333.09 364.39 332.91 364.46 332.72 364.53 332.62 364.54 332.5 364.53 332.5 364.53 332.49 364.57 332.53 364.58 332.54 364.59 332.58 364.61 332.58 364.61 332.57 364.65 332.54 364.65 332.49 364.67 332.46 364.7 332.45 364.71 332.46 364.75 332.46 364.75 332.27 364.79 332.17 364.81 332.1 364.86 332.13 364.9 332.13 364.9 332.12 364.94 332.1 364.94 332.03 364.95 331.98 364.98 331.96 365.02 331.96 365.05 331.99 365.05 331.99 365.05 331.98 365.14 331.96 365.26 331.96 365.26 332.03 365.33 332.08 365.4 332.08 365.4 332 365.46 331.96 365.45 331.93 365.43 331.93 365.43 331.93 365.46 331.91 365.47 331.87 365.51 331.87 365.51 331.86 365.53 331.85 365.51 331.81 365.47 331.77 365.46 331.74 365.46 331.73 365.47 331.73 365.47 331.71 365.54 331.71 365.57 331.74 365.59 331.77 365.65 331.85 365.7 331.9 365.75 331.9 365.75 331.88 365.78 331.85 365.78 331.78 365.77 331.73 365.77 331.69 365.78 331.66 365.81 331.66 365.81 331.62 365.77 331.56 365.78 331.5 365.81 331.45 365.86 331.45 365.86 331.41 365.9 331.36 365.93 331.25 365.98 331.15 366.06 331.08 366.1 331.04 366.17 331.04 366.17 331 366.15 330.96 366.17 330.88 366.2 330.81 366.21 330.79 366.21 330.76 366.18 330.76 366.18 330.64 366.2 330.54 366.2 330.32 366.12 330.22 366.09 330.11 366.1 330.01 366.12 329.91 366.19 329.91 366.19 329.9 366.15 329.86 366.14 329.82 366.12 329.75 366.14 329.7 366.14 329.7 366.14 329.62 366.17 329.58 366.18 329.56 366.15 329.56 366.15 329.54 366.11 329.51 366.08 329.44 366.06 329.44 366.06 329.39 366.07 329.36 366.09 329.29 366.05 329.22 366.01 329.16 365.97 329.16 365.97 328.98 365.9 328.89 365.89 328.84 365.89 328.78 365.92 328.78 365.92 328.78 365.84 328.77 365.82 328.74 365.8 328.74 365.8 328.73 365.81 328.72 365.83 328.66 365.8 328.64 365.77 328.62 365.76 328.6 365.76 328.6 365.76 328.61 365.72 328.61 365.69 328.56 365.67 328.5 365.64 328.45 365.61 328.45 365.61 328.45 365.64 328.44 365.65 328.4 365.67 328.34 365.69 328.31 365.71 328.31 365.71 328.13 365.62 327.96 365.52 327.96 365.52 327.85 365.47 327.75 365.45 327.65 365.41 327.56 365.34 327.56 365.34 327.49 365.3 327.44 365.25 327.29 365.18 327.21 365.16 327.16 365.11 327.11 365.05 327.07 364.96 327.07 364.96 327.05 364.84 327.02 364.74 327 364.68 326.98 364.64 326.94 364.6 326.89 364.58 326.81 364.5 326.81 364.5 326.82 364.46 326.84 364.42 326.81 364.34 326.74 364.19 326.74 364.19 326.68 364.18 326.62 364.13 326.58 364.06 326.56 364.01 326.56 364.01 326.54 363.94 326.54 363.86 326.58 363.72 326.59 363.65 326.59 363.57 326.56 363.52 326.52 363.45 326.52 363.45 326.5 363.37 326.51 363.31 326.48 363.25 326.47 363.24 326.44 363.21 326.44 363.21 326.46 363.2 326.46 363.15 326.43 363.12 326.43 363.12 326.43 363.09 326.43 363.07 326.39 363.03 326.39 363.03 326.4 362.99 326.42 362.95 326.43 362.85 326.43 362.85 326.38 362.77 326.32 362.7 326.24 362.48 326.24 362.48 326.21 362.4 326.23 362.31 326.26 362.22 326.32 362.14 326.37 362.06 326.41 361.96 326.45 361.87 326.42 361.77 326.42 361.77 326.49 361.75 326.51 361.73 326.61 361.66 326.69 361.58 326.78 361.54 326.78 361.54 326.79 361.44 326.79 361.37 326.79 361.21 326.76 361.05 326.77 360.95 326.79 360.86 326.79 360.86 326.92 360.78 327.06 360.69 327.33 360.47 327.33 360.47 327.39 360.49 327.47 360.49 327.57 360.47 327.65 360.42 327.65 360.42 327.71 360.27 327.82 360.14 327.92 360 328.04 359.91 328.2 359.83 328.35 359.76 328.5 359.74 328.68 359.72 328.68 359.72 328.76 359.69 328.82 359.68 328.96 359.68 329.09 359.68 329.26 359.67 329.26 359.67 329.3 359.68 329.35 359.68 329.45 359.66 329.64 359.6 329.64 359.6 329.73 359.62 329.79 359.61 329.83 359.57 329.9 359.53 329.95 359.48 330 359.45 330.07 359.46 330.14 359.5 330.33 359.46 330.33 359.46 330.3 359.47 330.28 359.49 330.28 359.49 330.36 359.54 330.47 359.59 330.59 359.63 330.64 359.63 330.71 359.62 330.71 359.62 330.69 359.66 330.68 359.7 330.71 359.72 330.72 359.76 330.8 359.81 330.87 359.85 330.87 359.85 330.91 359.84 330.93 359.81 330.96 359.76 331 359.72 331.03 359.69 331.05 359.69 331.05 359.69 331.07 359.65 331.08 359.64 331.08 359.64 331.06 359.68 331.05 359.72 331.05 359.77 331.08 359.82 331.08 359.82 331.12 359.84 331.17 359.84 331.25 359.81 331.25 359.81 331.26 359.77 331.28 359.73 331.32 359.69 331.38 359.65 331.4 359.61 331.4 359.61 331.49 359.62 331.56 359.61 331.62 359.57 331.69 359.53 331.75 359.46 331.82 359.45 331.9 359.42 331.97 359.46 331.97 359.46 332.15 359.51 332.32 359.61 332.49 359.71 332.62 359.87 332.62 359.87 332.67 360.03 332.69 360.17 332.68 360.32 332.68 360.48 332.68 360.48 332.68 360.48"/><polygon class="cls-3" points="330.73 359.56 330.73 359.56 330.67 359.5 330.63 359.48 330.57 359.48 330.59 359.44 330.43 359.44 330.43 359.44 330.52 359.43 330.61 359.44 330.79 359.51 330.73 359.56 330.73 359.56"/><path class="cls-3" d="M327.51,348.89h0l0,0h.05l0,0,0,0,0,0h0l0,0h.11l0,0,.05,0h0l0,0V349l0,0h-.09v0h.23l.17.07.09,0,.09,0h0v0h0v0h-.05l0,0h0l-.14-.05h-.16v.08l0,0h0l.07,0,.07,0,.15.05h.24l0,0h.07v0h0l0,.06v0l0,0h.09l.09.06,0,0,0,0h.11l0,0,0,0,.09,0,.09,0,.05,0,0,0h.05l0,0,.05,0h.05l0,0,.05,0,.07,0,0,0h0v.08h0l.18.11.18.1h0l.12.13.15.12.15.11.14.1h0l0,.07.06.06.07.05.06,0,.07.05.06.05,0,.07,0,0,0,0h0l.06.06.06.05.11.11h0l0,0h0l-.05,0,0,0h-.06v.08l0,0v0l.06.05,0,0,.06,0,0,.05,0,0v.1h0l.05.1.08.08.06.08.06.08h0l0,0v0l0,.05,0,0,0,.06h0l.07.07.07.08.05.07.05.09h0l0,0h-.05v0l0,0,0,0,.05,0h0v0h0l.05.09.06.08.12.14.06.08.07.09,0,.08,0,.09h0v0l0,0,.05.06,0,0v0l0,0h0l0,.05v.05l0,0v.05h-.09v0h0l0,0V354l0,.1v.05l0,0h0v.2h0l0,0,0,0v.1l0,0,0,0h0l0,.06,0,0,.08.08,0,0,0,0,0,.06v.06h0l.09.07.09.07.08.08.06.08h0l0,0-.08-.06,0,0,0,0h0l0,0h0v0l0,0,0,0,0,0h0l0,0h0l0,0h0l0,0v.05h0l0,0h0l0,.06,0,0,0,.06.06,0h0v.06l0,0,0,0h0l0,0H333v.05l0,0,.06.08V356h0v0l-.05,0h0l-.08,0h-.24v.05h-.07l-.06,0-.07,0-.07,0h0l-.15-.1-.13-.11-.13-.11-.12-.12a5,5,0,0,0-.47-.63l-.21-.16h0l-.21-.15-.21-.15-.21-.15-.22-.15h0l-.26-.14-.26-.14-.13-.06-.14-.06-.13-.05-.15,0h0l0,0,0,0,0,0H329l0,0,0,0h-.69l-.2,0-.09,0-.11,0-.09,0-.08.05,0,0,0,0,0,0,0,0h0l0,.1v.28l0,.21v.19h0l0,.08v.08l0,.08,0,0,0,0h0v.13l0,0h0l0,0,0,0,0,.06v.23l0,0,0,0,0,0h.06l0,0,0,0h0v.12h0l.09,0,.09,0,.08.06,0,0,0,0h0l0,.06,0,0,0,0,.05,0,0,0,.05,0,0,0,0,.06h0l0,0,0,0h.09l0,0h0l.09.06.11,0,.1,0h.16l.05,0h.25l.1,0,.11,0,.05,0,0,0,0,0,0,0h0v.06l0,0,0,0,0,0h0l0,0v0l0,.05h0l.05.08,0,0,0,0h0v.15l0,.07,0,.07,0,.07,0,.07v.15h0v0l0,.06,0,.1V358l-.05,0h0v.2l0,0,0,0h0l-.09,0H330v0h0l0,0h0v0l0,0h0v.07h-.09v.07h-.17l-.07,0h0l0,0h0l0,0h.07v0h-.13l0,.05,0,0-.07,0h-.41l-.35,0-.18,0H328l-.18,0h0l-.47-.1-.24-.06-.23-.07h0l0,0,0,0-.07,0h0l0,0,0,0,0,0h0l-.08,0-.08,0-.07,0-.07,0-.14-.1-.14-.09h0l-.15-.09-.14-.1-.14-.09-.07-.05-.06-.06h0l-.06,0-.07,0-.07,0,0-.06h0v0h0v0l0,0,0,0h0l-.05,0-.05,0,0,0,0,0v0h0l-.09-.09-.09-.08-.09-.08-.09-.09h0l0,0,0,0,0,0,0,0h0l0-.06-.05-.05-.07-.11-.08-.13-.09-.11h0l0-.21-.06-.19-.12-.38h0l0,0,0,0v0l0,0,0-.07v-.07h0l0,0h0v-.15l0-.05h0V355l0,0v0l0,0h-.06v0h0V355l0,.06,0,.1,0,.12,0,.05v0h0l0,0v0h0l-.05-.05,0-.06,0-.06,0-.07,0-.15,0-.13h0l0-.13,0-.13h0v0h0v0l0,0,0,0h0l0,0,0,0v-.06h0l0-.18v-.09l0,0v0h0l0,0v-.27l0,0h0v-.25h0v-.73l0-.11h0l0,0,0,0v.13l0,0v0l-.05,0h0l0-.07v-.07h0l0,0v0l0-.07v-.39l0-.07h0v-.35l0-.17,0-.17h0l.05,0v-.08l0,0v-.07l0,0,0,0h0v.05h0l0,0v.05h0v0l0,0,.05,0,0,0v-.07l0-.05h0v0h-.07v0l0,0h0v0l0,0h.13l0,0h0l0-.06.05-.06,0-.05.05-.06h0v-.07h.1l0,0,0,0h0v0h0l0,0h-.07l0,0,0,0-.06,0h0l0,0,0,0v0h0l0,0,0,.05-.05,0h0v-.1l0-.06,0,0,.07-.09.08-.08h0l.05-.07.06-.06.12-.1.12-.1.12-.11h0l0,0,0-.06,0-.06,0-.06h.15l0,0h0l0,0v0h-.06v0l0,0h0l0,0h0l0,0,.07,0h.1l0,.05H325v0h0v.1l0,0h-.19v0h.12l.06,0h0l0,0h0l0,0h.07v-.05l0,0h.17l.09,0,.09,0,.07,0,0,0h0l0,0h-.08l0,0-.08,0h-.07v-.12h.07l0,0h-.07l.06,0h.06l.13,0h0v0l0,0,.05,0,.05,0,0,0,0,0h0l.09,0,.12,0h.23v-.11h.39l0,0h0v0h0l0,0v0h.07l0,0,0,.05v0h0l0,0,0,0V349h.16v-.05h.18l.05,0,0,0,0,0,0-.05h.07l.07,0,.06,0,.08,0Z"/><polygon class="cls-3" points="326.41 349.17 326.42 349.19 326.42 349.19 326.39 349.2 326.37 349.19 326.36 349.18 326.36 349.16 326.36 349.16 326.38 349.16 326.39 349.16 326.41 349.17 326.41 349.17 326.41 349.17"/><polygon class="cls-3" points="327.07 349.19 327.07 349.19 327.05 349.17 327.04 349.17 327 349.17 326.97 349.15 326.96 349.14 326.96 349.12 326.96 349.12 326.99 349.13 327.02 349.14 327.04 349.17 327.07 349.19 327.07 349.19 327.07 349.19"/><polygon class="cls-3" points="325.23 349.56 325.23 349.59 325.23 349.59 325.2 349.59 325.18 349.57 325.18 349.57 325.19 349.55 325.2 349.55 325.22 349.56 325.23 349.56 325.23 349.56 325.23 349.56"/><polygon class="cls-3" points="325.26 349.73 325.26 349.73 325.25 349.74 325.23 349.74 325.23 349.74 325.21 349.72 325.2 349.7 325.2 349.68 325.2 349.68 325.23 349.67 325.25 349.68 325.27 349.71 325.26 349.73 325.26 349.73 325.26 349.73"/><polygon class="cls-3" points="324.52 350.28 324.52 350.29 324.52 350.29 324.5 350.28 324.48 350.3 324.45 350.32 324.43 350.34 324.42 350.34 324.41 350.35 324.39 350.33 324.39 350.33 324.42 350.3 324.45 350.28 324.48 350.28 324.52 350.28 324.52 350.28 324.52 350.28"/><polygon class="cls-3" points="323.58 351.2 323.58 351.2 323.58 351.21 323.56 351.22 323.55 351.22 323.55 351.22 323.54 351.23 323.53 351.21 323.53 351.19 323.53 351.19 323.55 351.17 323.56 351.17 323.57 351.18 323.58 351.2 323.58 351.2 323.58 351.2"/><polygon class="cls-3" points="333.34 355.32 333.34 355.34 333.34 355.34 333.29 355.32 333.26 355.3 333.25 355.27 333.25 355.27 333.28 355.27 333.3 355.29 333.34 355.32 333.34 355.32 333.34 355.32"/><polygon class="cls-3" points="329.7 358.66 329.7 358.66 329.68 358.68 329.66 358.68 329.66 358.66 329.7 358.66 329.7 358.66"/><polygon class="cls-3" points="311.39 303.7 311.84 303.73 312.12 303.68 312.26 303.66 312.22 303.46 311.79 303.43 311.34 303.4 311.24 303.63 311.1 303.65 311.11 303.75 311.39 303.7"/><polygon class="cls-3" points="330.36 318.96 330.92 318.86 331.34 318.79 331.76 318.71 331.77 318.81 331.66 318.94 331.51 318.96 331.67 319.04 332.09 318.96 332.04 318.66 331.97 318.27 331.77 317.99 331.45 317.74 330.52 318.21 330.27 318.46 330.04 318.81 330.2 318.88 330.36 318.96"/><polygon class="cls-3" points="283.64 310.88 283.79 310.96 284.78 309.97 284.52 310.11 284.11 310.29 283.71 310.46 283.58 310.58 283.46 310.71 283.47 310.81 283.64 310.88"/><polygon class="cls-3" points="271.7 384.89 271.31 385.16 271.87 385.06 271.7 384.89"/><polygon class="cls-3" points="272.9 385.19 272.87 384.99 272.45 385.06 272.19 385.21 272.08 385.44 271.83 385.69 272.27 385.71 272.57 385.76 272.88 385.91 273.3 385.84 273.41 385.62 273.23 385.44 272.9 385.19"/><polygon class="cls-3" points="312.85 391.42 312.45 391.59 313.01 391.49 313.15 391.46 313.26 391.24 312.98 391.29 312.85 391.42"/><polygon class="cls-3" points="272.99 386.51 273.27 386.46 272.92 386.11 272.99 386.51"/><polygon class="cls-3" points="275.07 386.86 275.09 386.96 275.51 386.89 275.19 386.74 275.07 386.86"/><polygon class="cls-3" points="283.02 313.14 282.62 312.49 282.69 312.89 283.02 313.14"/><polygon class="cls-3" points="281.66 318.6 282.22 318.5 282.02 318.24 281.76 318.38 281.64 318.5 281.66 318.6"/><polygon class="cls-3" points="283.23 314.34 283.18 314.04 283 313.86 282.66 313.61 282.4 313.76 282.28 313.88 282.21 314.31 282.18 314.93 282.7 314.63 283.23 314.34"/><path class="cls-3" d="M87.37,372.54l.09-.1h-.24Z"/><polygon class="cls-3" points="281.64 317.69 281.47 317.51 281.33 317.54 281.19 317.56 281.52 317.81 281.64 317.69"/><polygon class="cls-3" points="355.59 353.71 355.84 353.47 355.39 353.44 355.43 353.64 355.59 353.71"/><path class="cls-3" d="M341.75,372.62a1,1,0,0,0,.36-.19A3.2,3.2,0,0,0,341.75,372.62Z"/><path class="cls-3" d="M349.59,365.9c-.15.07-.17.19-.28.39C349.4,366.19,349.58,366,349.59,365.9Z"/><polygon class="cls-3" points="353 352.93 352.62 353.21 353.04 353.13 353 352.93"/><polygon class="cls-3" points="338.17 383.43 338.31 383.41 338.43 383.28 338.43 383.26 338.17 383.43"/><polygon class="cls-3" points="354.32 350.55 354.58 350.4 354.69 350.18 354.81 350.06 354.93 349.94 355.04 349.71 355.01 349.51 354.83 349.34 354.55 349.39 354.07 349.98 353.9 350.63 354.19 350.68 354.32 350.55"/><path class="cls-3" d="M347.76,346.52l.1.14c-.12-.13,0,.15-.18-.06a2,2,0,0,0,.58.73v0l.26-.15.25-.24,0-.2-.15-.08-.16-.08.09-.32.22-.34,0-.1-.3-.15-.39.27-.25.25-.12.12.29.05Z"/><polygon class="cls-3" points="332.06 324.6 332.48 324.53 332.3 324.36 332.06 324.6"/><polygon class="cls-3" points="332.33 320.36 331.63 320.48 331.37 320.63 331.28 320.95 331.33 321.25 331.85 321.77 332.05 322.04 332.1 322.34 332.18 322.84 332.27 323.34 332.34 323.74 332.71 324.19 332.99 324.14 333.13 324.11 333.66 323.81 333.51 323.84 333.22 323.79 333.02 323.52 332.95 323.12 332.9 322.82 332.4 322.39 332.35 322.1 332.33 321.99 332.43 321.77 332.12 321.62 332.07 321.32 332.17 321.1 332.42 320.86 332.77 320.38 332.85 320.06 332.95 319.73 332.38 319.83 332.56 320.01 332.58 320.11 332.45 320.23 332.33 320.36"/><polygon class="cls-3" points="333.68 324.83 333.85 324.91 334.13 324.86 334.23 324.64 334.09 324.66 333.93 324.58 333.79 324.61 333.53 324.76 333.68 324.83"/><path class="cls-3" d="M335.77,338.47l-.38.27-.09.32-.23.35-.39.27,0,.2-.34.57-.48.49.14,0-.18.06-.05,0a6.47,6.47,0,0,1,1.83-.26,7.4,7.4,0,0,1,1.93.41h-.1c.57.21.7.22,1,.31l0-.19-.34-.25.42-.07.12-.12.11-.23,0-.2-.21-.37-.06-.3v-.1l.21-.45.11-.22-.18-.17.47-.6.23-.34.08-.43-.07-.39.07-.43-.09-.49-.22-.48-.28.05-.13.13-.38.27-.23.34-.23.35-.43.07-.26.15-.49.5-.49.49Z"/><polygon class="cls-3" points="338.98 339.49 339.01 339.69 339.18 339.87 339.29 339.64 339.39 339.42 339.21 339.14 338.98 339.49"/><path class="cls-3" d="M341.75,342.18l.23-.35.24-.24-.05-.3L341,342.54l.1.07Z"/><path class="cls-3" d="M349.1,348.6a.9.9,0,0,1,.28.44l0-.1.26-.14.43-.08-.2-.27.21-.45.19-.54.25-.25.27-.15.26-.15.42-.07.26-1-.08-.49-.19-.28-.65.42-.09.33,0,.19-.38.27-.23.35-.74.75-.54.76.17.18C349.53,349,348.94,348.28,349.1,348.6Z"/><polygon class="cls-3" points="351.69 380.31 351.8 380.09 351.79 380 351.63 380.33 351.69 380.31"/><polygon class="cls-3" points="328.56 322.75 328.68 322.63 328.82 322.6 328.79 322.4 328.4 322.68 328.56 322.75"/><polygon class="cls-3" points="329.35 323.13 329.37 323.23 329.51 323.21 329.65 323.18 329.75 322.95 329.47 323 329.35 323.13"/><path class="cls-3" d="M170.07,399.25l-.31-.12-.6.1Z"/><polygon class="cls-3" points="285.01 321.3 285.45 320.51 285.33 320.63 285.05 320.68 285.1 320.98 284.86 321.22 285.01 321.3"/><path class="cls-3" d="M174.16,399.47l-.8-.1A4.42,4.42,0,0,0,174.16,399.47Z"/><polygon class="cls-3" points="307.86 390.95 307.61 391.1 307.5 391.32 307.66 391.39 308.06 391.22 308.46 391.05 308.86 390.88 308.94 390.8 307.96 390.86 307.86 390.95"/><polygon class="cls-3" points="307.96 390.62 307.8 390.55 307.54 390.7 306.85 390.92 307.96 390.86 307.99 390.82 307.96 390.62"/><path class="cls-3" d="M342.42,372.1l.12-.05.06-.05Z"/><path class="cls-3" d="M205.24,343.79a1.11,1.11,0,0,0-.56,0,3.34,3.34,0,0,0-1.42.93c-1.45,1.45-2.79,4.22-4,8.36a50.62,50.62,0,0,0-1.19,9.25,3.67,3.67,0,0,0,.25,2c.14.15.46.22,1.08.24a21,21,0,0,0,2.28-.08,21.57,21.57,0,0,0,3.59-.61c1.33-.38,1.26-2.39,1.37-5.8,0-1-.06-6.94-.28-11.84C206.29,344.92,205.87,344,205.24,343.79Z"/><path class="cls-3" d="M295.61,334.77a1.26,1.26,0,1,0,1.26,1.26A1.26,1.26,0,0,0,295.61,334.77Z"/><path class="cls-3" d="M320.09,342.57a1.27,1.27,0,1,0-1.26,1.27A1.26,1.26,0,0,0,320.09,342.57Z"/><path class="cls-3" d="M247.53,346.43c2.86-2.95,2.16-4.31,1.56-4.89a1.65,1.65,0,0,0-1-.39,21.63,21.63,0,0,0-4.15.21,24.28,24.28,0,0,0-4,.89c-1,.27-.79.59-1,1.08a59.9,59.9,0,0,0-1.58,6.06S243.78,350.29,247.53,346.43Z"/><path class="cls-3" d="M236.31,354.62c-1.69,6.94-1.35,16.81,2.47,19.43,6.15,4.23,11.62-4.79,11.62-4.79s3.83-6,2.32-10C251,354.57,236.61,353.35,236.31,354.62Z"/><path class="cls-3" d="M148.13,343.79a1.09,1.09,0,0,0-.56,0,3.33,3.33,0,0,0-1.41.93c-1.45,1.45-2.79,4.22-4,8.36a50.62,50.62,0,0,0-1.19,9.25,3.58,3.58,0,0,0,.25,2c.14.15.46.22,1.07.24a20.84,20.84,0,0,0,2.28-.08,21.33,21.33,0,0,0,3.59-.61c1.34-.38,1.27-2.39,1.38-5.8,0-1-.06-6.94-.29-11.84C149.19,344.92,148.77,344,148.13,343.79Z"/><path class="cls-3" d="M359.33,361.93l-.42.08-.14,0-.16-.08.13-.12.1-.22.13-.12-.18-.18-1.28.94-.26.15-.32-.16.46-.69.18-.64-1,.69-.66.32-.69.22-.3-.05-.17-.17.07-.42.08-.43,0-.2-.18-.17.37-.37.13-.13.28-.05.4-.17.1-.22.21-.45.13-.94.25-.25.22-.35-.05-.29-.05-.3.05-.52.09-.33.25-.24-.14,0-.16-.08-.19-.27.1-.22v-.1l-1.19-.21.47-.59.09-.32,0-.2-.16-.08,0,.2-.12.13-.39.27-.4.17-.26.15-.13.12-.17-.17-.19-.28-.09-.49.05-.53.06-.52-.37.37-.39.27-1.09.4h-.57l-.26.15-.39.27-.06.23a4.87,4.87,0,0,0,0,1.26s0,0,0,0l0-.21c0,.32,0,.18,0,.21v0a.74.74,0,0,0,0,.22c.09.55.26,1,.35,1.68l.17.37c.07.55-.21-.51-.11.4,0,.64.12.23.17.45a11.16,11.16,0,0,0-.08,1.48,5.24,5.24,0,0,0,.05-.53l0,.45c.13-.54.08-.95.17-.52-.1,0-.12.48-.18.92s-.17.88-.27.88l0,.3c0-.08,0-.09.06-.17-.06.59-.25.38-.46,1.08-.08.24-.12.42,0,.26l-.26.51c-.05.11,0,.13,0,.07-.11.23-.22.46-.34.69h0c0-.05.06-.07,0,0l0,0c-.1.12-.27.33-.34.43s.07-.09.06,0l-.27.39c-.06.2.19-.12.34-.41-.05.49-.22.33-.65,1.2l.27-.37a3.87,3.87,0,0,1-.57,1.06c.07-.12.48-1,.13-.55a1.94,1.94,0,0,1-.39.49s-.14.25-.37.5l.09,0a1.94,1.94,0,0,1-.46.33c-.27.31-.28.42-.3.53-.42.48.22-.4-.31.14-.34.42-.61.67-1.05,1.13-.22.33.09,0,0,.11a2.77,2.77,0,0,1-.29.22c-.06.07,0,.07,0,.06-.22.2-.08,0-.43.26-.14,0-.62.74-1.16.94-.1.1.09,0,.07.07a10,10,0,0,1-1.17.53l-.43.32a2.46,2.46,0,0,1-.28.21l.28-.21c.3-.26-.17-.08-.58.07l-.06.06c.18,0,.35-.06.35,0s.06,0,0,.06a.08.08,0,0,0,0-.06.69.69,0,0,0-.21.09s.08,0,.06,0-.09,0-.2.07l-.09.17-.05,0-.8.47c-.65.17-1.23.25-2.23.49.27,0,.09.11.13.19.25-.16.78-.19,1.29-.41-.26.11-.19.13-.12.12-.31.09-.63.16-.94.23,0,.07-.18.11-.42.21.15-.19-.72.09-1.12.11,0,0,.09.09.56,0-.5.22-.7,0-1.2.13.12,0,.18,0,.23,0-.28,0-.94.1-.78.13h.12a5.93,5.93,0,0,1-2.47-.16.4.4,0,0,0,.13.19c-.3-.12-.59-.26-.88-.4l-.45-.07c-.07.11-.19.23.25.34h0l.23-.15.37.29a1.66,1.66,0,0,0-.6-.14h0a3.65,3.65,0,0,1-.79-.13c.13,0,.34-.1.17-.14a6.68,6.68,0,0,1-.91,0c.18,0,0-.19-.28-.23,0,0-.05.16.05.19l-.69-.28c.17.06,0,.14-.16.16.08,0-.62-.09-.81-.13h.31c-.81-.09-.78-.32-1.59-.43.09,0,.21.24-.21.2-.1-.07-.35-.24-.65-.42l-.66-.15-.18-.07a5.42,5.42,0,0,0,1.07.58,1.49,1.49,0,0,1-.57-.07c-.18,0,.24.13.38.16A7.1,7.1,0,0,1,327,373c.07-.06-.77-.41-.69-.48a8.63,8.63,0,0,0,1.1.54c.07-.09-.59-.46-1.27-.81-.2-.06,0,.23,0,.25a6.16,6.16,0,0,0-.7-.44l.26.22c-.4-.2-.54-.49-1-.74-.14-.11-.5-.26-.48-.33a.37.37,0,0,0,.43-.09c-.15-.13-.29-.27-.43-.41v0l-.08-.08,0,0c-.14-.14-.27-.29-.4-.44s.16.48,0,.35c0,0-.05,0-.18-.15a1.22,1.22,0,0,0,.18.15.76.76,0,0,0-.11-.23c-.13-.13,0,.12-.26-.21,0-.11-.51-.66-.05-.2-.22-.34-.28-.33-.53-.73.09.06,0-.18-.06-.45l-.12-.2a1.7,1.7,0,0,0-.15-.22h0v0s0,0,0,0a12.75,12.75,0,0,0-1.32-1.49c-.06,0-.33-.28-.26-.13a2.15,2.15,0,0,0-.25-.37c-.37-.28.33.4,0,.21,0-.06-.35-.5-.52-.8.13,0,.5.59.7.86,0,0,0-.13-.05-.25a6.73,6.73,0,0,1-1.05-1.43q-.13-.27-.24-.54a6.45,6.45,0,0,1-.33-1c-.14-.55-.26-1.18-.39-1.61,0-.11,0-.26,0-.32a7,7,0,0,0-.48-1.32l-.18-.31.07.1.09.17a.93.93,0,0,0-.05-.1q-.16-.32-.3-.63l0-.06h0a7.28,7.28,0,0,1-.28-.73s0,0,0,0l-.09-.44s0,.16-.05,0a.47.47,0,0,0,0-.25c0-.17-.07-.33-.1-.5a.29.29,0,0,0,0-.09s0,0,0,0c0-.18-.05-.36-.06-.54a.15.15,0,0,0,0-.06v-.17h0a6.3,6.3,0,0,1,.71-2.95c.73-1.46,1.49-2.91,2.31-4.32a14.82,14.82,0,0,1,3.59-4.18l0-.05.33-.22s0,0,0,0h0l.47-.31c.11-.13.21-.26.16-.3.45-.12.9-.84,1.67-1,.14-.1-.15,0-.08,0a2.8,2.8,0,0,0,.79-.34h-.05a13.18,13.18,0,0,1,2.94-1l-.09.09c.29-.06.35-.09.48-.12.35.05-.81.12-.49.19a4,4,0,0,1,1.19-.22,3.1,3.1,0,0,0,.89-.17l-.14-.21-.05-.29.09-.33.27-1,.06-.42.36-.47.47.23.2-.55-.15,0-.28.05-.12.13-.16-.08.23-.35.41-.17h-.59l-.43,0-.16-.07,0-.1-.15-.08-.18-.17-.05-.3.09-.32.08-.32-.07-.4.1-.32.08-.33.37-.37-.29,0,0-.1.12-.12.12-.13.09-.32.37-.37.22-.35,0-.2,0-.19.1-.23.29,0,.42-.07.18.28,0,.2-.12.11.31.16.42-.07.1-.23-.05-.29-.08-.5-.31-.16-.18-.17.11-.23.12-.12.36-.37.11-.22.11-.23.56-.09.28-.05.16.08.33-.58-.05-.29-.16-.08-.15-.07.24-.25,0-.2-.07-.4-.22-.37.11-.23.26-.14-.17-.18-.32-.15-.29-.05-.18-.18.08-1.24-.1-.6-.23-.47-.3,0-.32-.15-.48-.33-.3-.05-.18-.18L333,325l-.4.17.19,1.1.08.5-.05.51-.42.08-.28.05-.3-.05-.33-.25-.29-.05L331,327l0-.2,0-.19.2-.55,0-.2-.32-.15.13-.12.14,0-.07-.4-.05-.3-.51-.42-.53.3v-.1l0-.1,0-.1,0-.1-.28.05-.26.15-.28.05-.16-.08.1-.22.13-.13.28,0,.26-.14,0-.2-.16-.08v-.1l-.29.05-.12.13-.24.24-.42.08-.32-.15,0-.73,0-.72-.12-.69.09-.33.24-.24.39-.28.23-.34.14-.85.09-.32.09-.32.45-.7.1-.32-.07-.4-.2-.27-.32-.15-.12.94-.81.35-1,.17,0-.2.12-.13.24-.24L328,318l.37-.37-.91-.25.46-.69-.46-.13.49-.49-.44,0-.31-.15-.24-.57-.06-.3-.17-.17-.33-.26-.44,0,0-.2.12-.12.25-.25.1-.23,0-.19-.18-.28-.34-.25-.34-.24-.48-.33-.33-.25-.72-.8-.35-.35-.35-.35-.45-.12-.6-.1.11-.23,0-.1-.56.1-.47-.22-.47-.23-.59-.11h-.58l-.32-.16-.31-.15-.2-.27,0-.2,0-.2-.56.1-.17-.17-.18-.18-.17-.17.1-.22-.62-.31-.13.12-.28.05-.17-.17-.33-.25-.14,0-.29.05-.31-.15-.16-.07,0-.2h-.58l-.31-.15-.34-.25-.18-.28-.2-.27-.34-.25-.3-.15-.6-.1-.35-.35.11-.23.26-.15-.78-.27-.73-.08.16.08.16.07.28,0,.15.07-.28.05,0,.2-.11.12-.11.23-.16-.08-.3-.05-.27,0-.16-.07.23-.34.07-.43-.13-.7-.2-.37-.05-.3.08-.32.41-.17-.44,0-.44,0-.64-.4-.18-.18.11-.22.1-.23,0-.19-1.35-.28-.59-.1-.48-.23-.47-.22h-.58l-.15-.08,0-.2v-.1l0-.2-.32-.15-.15-.08-.28,0-.49-.32-.46-.13-.56.1-.54.2-1.09.39-.55.1h-.59l0-.72-.31-.15-.44,0-.56.09-.7.13-.72,0-1.26.22-1.1.29-1.09.4-.53.19-.38.37-.44,0-.26.15-.5.49-.36.37-.26.15-.28.05-.95.37-.66.32-.5.5-.49.49L288,305l-.35.48L287,306l-.07.42-.21.45-.74.74-.73.74-.21.44-.08.43.72,0,.29-.05.31.15-.06.52-.1.22-.25.25-.08.32.17.18.3.05.07.4-.11.22-.11.22-.14.85.2.27.47.22-.11.23-.28.05-.28,0-.26.16-.1.22-.55.2-.26.15-.23.34-.09.32,0,.72-.09.33-.11.22L284,316l-.57.09-.43,0-.4.17.17.17.31.16.07.4.33.25.69.59.19.28.19.27-.09.32-.21.45-1.06-.33L283,319l0,.19.06.31-.11.21.16.08,0,.2.53-.29.17.17.18.17.05.3,0,.2.63-.52.5-.49.46-.6.1-.32.09-.32.11-.23.11-.12.4-.28.53-.19.27-.14.19.27.07.39.19.28.17.18.16.07-.09.32-.36.37-.55.2-.38.27-.07.42-.11.23-.23.34-.25.25.41-.17.25-.25.1-.22.39-.27.17.17.17.17,0,.1-.1.23.14,0v.1l0,.2,0,.1-.25.25-.26.15-.54.19.65.4-.27.15-.13.13-.33.57-.23.34-.12.13-.41.17-.17-.18-.18-.17.13-.12-.28,0-.14,0-.31-.15-.2-.27-.28.05-.13,0,0-.62.33-.57,0-.2-.16-.08-.16-.07-.1.22-.12.12-.08.43-.07.42-.1.22-.11.23-.15-.08-.15,0-.17-.17,0-.2-.16-.07-.14,0,.12-.12.14,0,0-.2-.3,0-.16-.08-.21-.37-.19-.28-.16-.07-.3-.05-.31-.16-.45-.12-.88-.06.46.13-.27.14-.1.23.07.4-.25.25-.12.12-.44,0-.3-.05-.28,0-.26.15.18.18.29.05.6.1.18.17.15.08.05.29.05.3.33.25-.19.55-.07.42v.92l-.1.23-.13.12-.27,0-.28.05-.15,0-.12.12-.6-.2-.48-.22-.61-.2-.6-.11-.35-.35-.45-.12-1.07-.33-.17-.17.1-.22,0-.2,0-.2-.31-.15-.19-.28-.51-.42-.32-.15-.31-.15-.3-.05-.42.07,0,.2-.12.12.95.45-.23.35-.07.42-.09.33-.23.34.3,0,.14,0,.28-.05.3.05-.25.25-.28.05-.42.07-.42.07-.48-.22-.33-.25-.45-.13-.3,0-.28,0-.71,0-.42.08-.25.25-.09.32-.3.76-.23.35-.38.27-1.57-.75-.65-.39-.67-.51-.4.18-.3-.05-.44,0-.31-.15-.48-.33-.46-.12-.31-.15-.11.22-.12.12-.45,0-.43,0-.56.1.07.4-.46-.13-.43,0-.3-.05-.33-.25-.28.05-.44,0-.48-.22-.49-.32-.47-.23-.55.1-.29.05-.12.12,0,.2.17.18.45.12.44,0,.45.13-.1.22,0,.11,0,.19,0,.1-.19.55.08.5.09.49-.21.45-.16-.08-.42.08-.28.05-.14,0v-.1l-.29.05-.15-.08-.3-.05-.44,0-.44,0-.89-.15-.75-.18-.42.08-.56.09-.47-.22-.6-.1h-.57l-.57.1-1.1.3-.67.11v0l-1.54-.7-.78.21v-.32l-.16-.73-.55-.78-1.3-1.22-1.82-1-2.84-1.37L232.33,319a3.54,3.54,0,0,0-1.79-1.34c-1.4-.6-1.83-.05-1.83-.05l-.73-.13a15.72,15.72,0,0,0-3.1-1.88c-.79-.17-5.18-.81-5.18-.81l-2.58-.71-1.76-.49-2.37-.18-1.73-.43-1.82-.57-1,0-1.55-.37-2.14-.57-2.57-1-3.1-.73-3.8.87-3.08-1.27-7-.53-6.74-.86-6.76-.32-.92-.65-1.55-.37-1.56-.05L164,306.4,154,308.55l-4.69.15-4.17-.15.51.33-.53.3-1,0-2.08-.07-2.13,1.17-2.1.55-4.2,1.1L128.88,313l-2.1.55-1.6.88-8.85,2.8-5.85,3.22-5.84,3.25-4.82,3.89-4.32,4.21-4.07,4-3.28,4.56-2.77,4.58,0,.93-.55.91-1.1,1.52-1.09,1.52,0,.93,1,1L82,353.16l0,.62,0,.93,1.56.06.52.33,0,.62-.53.29-1,0,1,.66-1,.52.86,2-.56,1.23-.57,1.22-1-1-.52,0-.52,0v.31l.49.64-.56,1.23L80,364l0,1.25.14,1.5,1.59,1.79c.26-1,.54-2,.86-3.17Q84.84,357.5,88,349a51.4,51.4,0,0,1,4.74-10c1.44-2.53,2-2.51,2.85-2.76a8.07,8.07,0,0,1,3.75,1.29c2.2,1.57,1.27,2.9,1.31,3.57-1.16,2.48-2.29,5-3.41,7.45q-3.73,8.25-6.7,14.85c-1.35,3-2.42,5.48-3.2,7.31l.81.83q2.93-3.58,5.92-7.69,2.64-3.62,7.55-10.85,3.75-5.52,7.48-11.09c.76-1.55,1.35-2.69,1.77-3.43a6.52,6.52,0,0,1,1.38-1.75,6.28,6.28,0,0,1,1.29-.76c.61-.29,3.45-.63,3.45.93a7,7,0,0,1-.44,2.08,85.46,85.46,0,0,0-3.2,10.95,37.62,37.62,0,0,0-1.24,10.19,18.06,18.06,0,0,0,2.08,7.9c1.57,2.77,3.68,4.07,6.35,3.92s4.76-2,6.08-5.41a21.53,21.53,0,0,0,1.31-9.06,23.23,23.23,0,0,0-2.46-9.73q-2.92-4.29-5.79-8.65c.09-.32-.26-.8.51-1.68a9.26,9.26,0,0,1,3.67-2.84q3.16-.19,6.81,6.91,3.25,6.36,3.5,10.45.45,7.59-4.17,16.24-5.07,9.52-11.66,9.9a10.9,10.9,0,0,1-10.49-5.15q-2.94-4.47-3.38-12.18c-.06-1-.09-1.76-.08-2.31s0-1.41.07-2.57q-3.16,5-5.73,8.55a105.29,105.29,0,0,1-8.35,10.42h0L93.26,377l0-.94.54-.29,1,0,.5.64,0,.62,0,1.56,4.6,2.34,4.6,2.65,4.38,2.72,5.54,2.93,2.57,1,3.09,1,2.58.72,2.6.09,2,1,.65.87,1.93-.15,3,2,2.76,2.12.53-.29,1,0,4-.12,1.53.68,1,.66.53-.3,3,2.51,1.55.36,1.55.37,6.18,2.08,3.1.73,3.11.42,1,.35,1.55.37,2.59.4,2.6.09.53,0-2.07-.7-2.58-.4-1,0-.54.3-1.55-.37-1-.35-1,0-1-.66-3.11-.73-3.1-.73-3.59-1.37-3.06-2.2,1.6-.88,1.56.06,1,.35,2.06.69,2.06.7,1,0,1,0,1,1.19s.34.63.77.71,2.84.34,2.84.34l3.63.44,7.8.28.51.64,1.06-.59.51.33,1,0,1.57-.25.53-.29-5.72-.2-4.67-.48L164,401.11l-4.62-1.94,3.16-.82,3.12.1,2.1.08.4.34.27-.32a.82.82,0,0,1-.38,0l.73,0,.48,0c.68.22,2.18.27,2.5.61.84,0,1.68-.06,2.51-.08-.09.12.29.36-.11.36.61.08,1.14.15.32.26,6-.29,12,.66,17.82-.05.4,0,.18.15,0,.24,1.06-.39,1,.13,1.62.15l1.54-.56c.65.12.16.29.21.39a39.51,39.51,0,0,0,4.33-.49,35.93,35.93,0,0,1,3.9-.37c.74-.28-.23-.37.76-.57-1.29.69,2.94-.17,2.13.31.89-.67,3.58-.62,3-1.3,1.18-.23,1,.14.7.28a16.12,16.12,0,0,1,3.65-.49c.36-.16,1.94-.41,3.57-.73a13.83,13.83,0,0,0,3.82-1.27c-.74.56.11.16.94.12l-.64.49,1.79-.48c.37-.06.47-.09.46-.12.3-.09-.12-.17.63-.44a6.08,6.08,0,0,1,2-.19l-.17.1.83-.22c.59-.2-2.21.34-.3-.42a2.7,2.7,0,0,0,1.78-.26c-1,.33-.93.07-.59-.13l1.39-.46-.34.54c2-.65,4-1.3,6.08-2.09s4.07-1.68,6.17-2.46c-.18-.3,3-1.14,2.37-1.51l-.14.12c-.69.27-.37-.07.17-.41l.65-.27c-.08.23,1.63-.22-.16.66l1.71-.5c1.29.52,4.26-2,6.82-2.81-.18.06-.25,0-.29,0a15,15,0,0,0,2.74-1.39,13.86,13.86,0,0,0,3.86-1.35,4.78,4.78,0,0,1,2.65-.5,25.43,25.43,0,0,0,3.29-.05l.74.49c.23-.36,1.06.36,2.08,1.09a6.46,6.46,0,0,0,1.68.94,2,2,0,0,0,1.33.05l.29.35.17.18.17.17.23-.35.27-.14.26-.15.47.22.47.23.82.57.69.6.7.7.53-.19.56-.1.72,0,.45.13.34.25.46.12.18.28.06.3,1-.07.34.25.44,0,.41-.07.43-.07.81-.35.55-.09h.59l-.09.32.16.07.43,0,.3.05.15.08-.1.22.91,1,1,2.56.3.06.28-.05-.17-.18-.29.05-1.1-2.43,1.21,1.39.32.15.32.14.75.18.45.13.15.08,0,.2,0,.2.56-.1.05.3-.26.15-.24.24-.27.15.29-.05v.1l.44,0,.28,0,.67-.32.29.05.27-.15.4-.17.56-.1.14,0,.32.14.55-.09.54-.2.92-.57.19.28.16.07.73.08.72,0,.6.1.35.35.59.1.44,0,.69-.22.55-.09.7-.13h.58l.61.2.27-.15.4-.17.28-.05.12-.13.46.13.43,0,.7-.12.83-.25.44,0,.42-.08.55-.09.72,0,1.21.3,1.23.16-.1.2,0,.05,1.93-.11-.1-.05-.31-.23h.21l.33.25.28-.05.08.08-.33,0,.06,0,.27-.05.27.27,0,.2,0,.2.26-.15.26-.15.83-.25.8-.34.25-.25.24-.24.28-.05.29-.05v.1l0,.19-.13.13-.4.17-.39.28-.24.24.26-.15.4-.17,1.11-.3,1.1-.28,1.09-.4,1.12-.2.49.33.31.15,0,.2.62.2h.58l.56-.1.56-.09,1.2-.52,1.08-.49.47.22h.57l.41-.17.39-.27.36-.37.54-.2.55-.19h.58l.4-.16.26-.15.25-.25.1-.22.22-.45.22-.35.24-.24.15,0,.26-.15.3.05.16.08.54-.2.4-.17.39-.27.22-.35.43-.07.17.17,0,.2.17.18.55-.2.4-.17,1-.17.56-.1.4-.17.39-.27.21-.45,0-.2.11-.23.38-.27.4-.27.11-.12,0-.2.37-.37.26-.15.28-.05.05.3,0,.3.05.27.78-.52-.09-.49.12-.13v3.67l.27-.05.44,0h.58l.42-.08.4-.17.24-.35-.55-.62.37-.38.42-.07,1-.07-.1.23-.11.22-.1.22-.09.33.26-.15.17.07.13,0,.26-.15.11-.23.21-.44.65-.42.49-.49.51-.4.65-.42.35.35,1.12-.19.4-.18.13-.12.1-.22,0-.2,0-.11-.32-.24.22-.35.25-.25.4-.17.57-.1.27-.05.18.18-.11.22-.11.23.29,0,.1-.23.09-.32.11-.23.14,0,.15.08.17-.75.05,1.19.26-.14.15,0,.29.05.16.08.07-.2,0,0,.17-.33h-.09l.18-.47,0,0,0,.1h0l.22-.43-.34.14.19-.19-.3,0,.35-.47-.16-.07.24-.25-.05-.3-.31-.15,0-.2,0-.1.12-.12-.29.05-.15-.08,0-.2-.32-.15.4-.17.13-.13.28,0,.1-.22.11-.23.25-.25,0-.1,0-.1L352,376l0-.2.14,0,.28-.05.56-.1.12-.12.12-.12-.31-.16-.42.08-.14,0-.18-.18.13-.12.07-.42.11-.22,0-.1.26-.15.11-.22.08-.33.22-.44.12-.13.26-.15.09.5,0,.52-.06.52-.37.38.32.14.28,0,.27-.05.17.08.19.27,0,.2.05.3L354,376l.06.29.32.16-.65.42-.41.17-.41.07-.06.53.21.37.31.15.42-.08.3.06.23-.35.08-.32.22-.45.11-.22-.37-.45.23-.35.12-.12.25-.25.08-.32.11-.22,0-.11-.2-.27-.33-.25-.19-.27.06-.52.05-.53.35-.47.5-.49.15.07.07.4,0,.2-.12.12.21.37.3.06.28-.05-.05-.3.1-.22,0-.1-.45-.13,0-.3.11-.22.52-.3-.32-.15.54-.29.1-.23,0-.19-.31-.15-.19-.28-.18-.17.24-.25.39-.28-.09-.49.1-.32.08-.32.07-.43-.42.07-.31-.15-.18-.17-.17-.17-.22-.48-.2-.27-.17-.17.52-.3.5-.5.66-.32.26-.15.42-.07-.24.25-.27.15.32.15.44-.8-.28.05.07-.42.21-.45.35-.47.37-.37.35-.47.23-.35.23-.34.11-.23Zm-7.57-3.11c0,.17,0,.38,0,.55C351.79,359,351.65,358.79,351.76,358.82Zm-21.66-33.1.08.5-.28,0-.16-.08-.17-.17,0-.2Zm-3.36-1.05.38-.27.27-.15.15.07,0,.1-.12.13-.11.22-.4.17-.54.2Zm-39-7.78-.11.23-.61-.2-.12.12-.31-.15,0-.1.1-.22.11-.23.08-.32.29,0,0-.2,0-.2-.35-.35-.16-.07,0-.2,0-.1.39-.27-.05-.3-.2-.27-.18-.18.26-.25.32.25.19.28.22.37.15.08.16.07-.11.22-.07.43.12.69.11.6ZM148.28,332.55A1.53,1.53,0,0,1,149.8,331h4.65a1.53,1.53,0,0,1,1.52,1.53v4.65a1.52,1.52,0,0,1-1.52,1.52H149.8a1.52,1.52,0,0,1-1.52-1.52ZM157,376.5a3,3,0,0,1-2.82,2.6,7.53,7.53,0,0,1-2.06-.33c-2.55-1-3.83-1.32-3.82-7l.1-2.95a8.07,8.07,0,0,0-.06-1.55c-.06-.32-.36-.48-.91-.5s-1.42.06-3,.21c-2,.25-3.05.65-3.24,1.19a5.63,5.63,0,0,0-.1,1.29c.08,1.48.07.48.33,3l.14,1.56a2.59,2.59,0,0,1-.52,1.56,1.6,1.6,0,0,1-1.26.71,2.6,2.6,0,0,1-1.63-.73c-1.51-1.39-2.19-4-2-8.76a48.47,48.47,0,0,1,2.15-12.35q2.14-7,5.41-10.69a6.81,6.81,0,0,1,5.36-2.56,6.08,6.08,0,0,1,2,.39,5.45,5.45,0,0,1,2.59,2.18q1.48,2.18,2.7,11a114.89,114.89,0,0,1,1.15,15.92A45.9,45.9,0,0,1,157,376.5Zm1.84-45.19V324.8a2.13,2.13,0,0,1,2.13-2.13h6.5a2.13,2.13,0,0,1,2.13,2.13v6.51a2.13,2.13,0,0,1-2.13,2.13H161A2.13,2.13,0,0,1,158.82,331.31Zm.31,10.19v-3.84a1.26,1.26,0,0,1,1.26-1.26h3.84a1.26,1.26,0,0,1,1.25,1.26v3.84a1.26,1.26,0,0,1-1.25,1.26h-3.84A1.26,1.26,0,0,1,159.13,341.5Zm15,35.84H161.43c-.11-17.25,9.23-20.56,9.23-20.56C164.28,363,165,373.05,165,373.05c12.87,1,11.91-16.1,18.3-24.28-6.72.59-17.54,2.29-21.88,9.71V348.11a1.81,1.81,0,0,1,1.8-1.81h3.71a2.13,2.13,0,0,0,2.08-2.09v-3.7a1.81,1.81,0,0,1,1.81-1.79h3.32c11.1,0,16,9.42,16.19,19C190.48,367.48,185.48,377.34,174.15,377.34Zm39.94-.84a3,3,0,0,1-2.83,2.6,7.59,7.59,0,0,1-2.06-.33c-2.55-1-3.82-1.32-3.81-7l.09-2.95a8.29,8.29,0,0,0,0-1.55c-.06-.32-.37-.48-.92-.5s-1.42.06-3,.21c-2,.25-3.05.65-3.24,1.19a5.15,5.15,0,0,0-.09,1.29c.07,1.48.06.48.32,3l.14,1.56a2.65,2.65,0,0,1-.51,1.56,1.63,1.63,0,0,1-1.27.71,2.62,2.62,0,0,1-1.63-.73c-1.51-1.39-2.18-4-2-8.76a48.47,48.47,0,0,1,2.15-12.35q2.15-7,5.42-10.69a6.78,6.78,0,0,1,5.35-2.56,6,6,0,0,1,2,.39,5.51,5.51,0,0,1,2.6,2.18c1,1.45,1.88,5.11,2.7,11a114.79,114.79,0,0,1,1.14,15.92A46.34,46.34,0,0,1,214.09,376.5Zm35.51-48.75-.4.18-.29.05-.16-.08h0Zm-1.41.22h.07l-.06,0h0Zm-.07.14.48,0-.26.15-.49.49-.17.1ZM224,395.22c-.2,0-.4-.06.26-.14Zm48-23.88a27.43,27.43,0,0,1-4.31.79c-2.4.32-4.88.59-7.36.74a45.57,45.57,0,0,1-6-.09,29.8,29.8,0,0,1-5.83,5.74c-2.6,1.84-8.27,5-14.9,1.17-13.53-7.47-4.79-24.8-2.11-34.81-1.2.32-3.92,1.17-5,1.3-2,.4-4.31.46-4.72-.88s.78-3.13,2.82-3.73,6.49-2.08,8.6-2.61c1.23-3.2,1.69-5.85,3.35-8.32,1-1.4,1.69-2.16,3.27-2s1.55,2.12,1.27,4.24c-.19,1.41-.62,2.73-1,4.53,3.68-1.13,9.74-1.53,13.08.53,6.48,3.39.28,9.73-3.52,12a25.88,25.88,0,0,1,4.73,1.93,2.48,2.48,0,0,1,1.36-1.23c1.47-.61,3.72-.59,5.39-.74,1.82-.2,2.67-.4,4.48-.55.77-.1,2-.43,2.79-.48a6.33,6.33,0,0,1,2.94.56,2.24,2.24,0,0,1,1.53,2.12c-.07,1-.9,1.73-2.16,2s-2.38.36-3.64.51a43.92,43.92,0,0,1-4.41.45c-1.54.05-3.09.24-4.64.39a8.37,8.37,0,0,1,1.4,3.11c1.23-.18,2.52-.24,3.74-.33s2.53-.2,3.76-.25a22.66,22.66,0,0,1,2.6.15,6.86,6.86,0,0,1,1.7.35,1.59,1.59,0,0,1,1.16,1.32,2.15,2.15,0,0,1-1.7,2.13,21.62,21.62,0,0,1-5.13.76c-1.7.1-3.48.25-5.19.45a3.44,3.44,0,0,1-1,0,19.46,19.46,0,0,1-1.63,4.72c3.64-.11,8-.23,8-.18,1.6-.06,3.12-.16,4.71-.11,1.84,0,3.52.74,3.6,2.17C274.15,370.17,273.27,371,271.91,371.34Zm31-63.14.28-.05.42-.07-.26.15-.4.17-.27.15-.42.07Zm16,26.95a2.05,2.05,0,0,1,3.91.88,2.05,2.05,0,0,1-3.91.88H297.51a2.11,2.11,0,1,1,0-1.76Zm-29.13-20.26,0,.09.15.08.14,0-.1-.6.28-.05.27-.05.32-.67.18-.64.15-.74.31-.78,0-.09.12-.13L292,311l.12-.13.13-.12,0-.2.07-.42.23-.35.47-.59.62-.62.23-.35.08-.32.4-.17.27-.15.25-.24.38-.28-.46-1.05.27,0,.13-.12,0-.2,0-.3.12-.12.14,0-.11.22,0,.2.16.07.29.06h.58l.3.05.16.07.14,0,.11-.12.15,0,0-.1-.18-.18.13-.12.28-.05.42-.07.51.43.36.44-.38.28-.25.24.11.6-.11.22-.1.23-.27.15-.56.09,0,.1,0,.2-.26.15-.28,0-.17-.17-.39.27-.25.25-.31.67-.48.6-.25.24-.38.27-.12.13-.11.22-.07.43-.21.44-.12.13-.13.12-.25.15-.25.25-.09.32-.22.35-.27.14-.28.05-.23.35-.25.25-.36.37-.39.27.17.18.32.15,0,.09-.25.25h-.58l-.41.89-.32-.15-.3-.05.25-.25.12-.12,0-.2-.59-.1Zm.27,2.41-.11.22-.3,0-.22-.47.12-.13.13-.12.42-.07.17.18,0,.09-.14,0-.13.13Zm-5.43,7,.26-.15.27-.15.43,0,.35.35-.26.14-.12.13-.11.22.18.17.08.5-.1.23-.26.14-.2-.27-.19-.27-.21-.37-.3-.06-.15-.07-.07-.4ZM298,363.72q-.9,6.81-3.05,9.76a2.86,2.86,0,0,1-2.23,1.31,2.3,2.3,0,0,1-1.18-.36,2.7,2.7,0,0,1-1-1.17,4,4,0,0,1-.4-1.78v-.16a110,110,0,0,1,2.27-12.14,68.5,68.5,0,0,0,1.71-9,2.51,2.51,0,0,0-.31-1.34,1,1,0,0,0-.91-.49q-1.78,0-3.86,3.58a21.54,21.54,0,0,0-2.24,7.45,79,79,0,0,0-.69,8.36c-.13,2.63-.27,4.32-.4,5.06a3.24,3.24,0,0,1-1,2,2.8,2.8,0,0,1-1.85.66,2.94,2.94,0,0,1-1.67-.47c-2.47-1.37-4.23-5.9-4.75-8.36a72.89,72.89,0,0,1-1.12-10.53,28.18,28.18,0,0,1,.82-7.74,5.25,5.25,0,0,1,.67-1.34c.44-.61,2.92-1.48,3.9,1.29a15.76,15.76,0,0,1,.81,4.46,99.92,99.92,0,0,0,1.26,11.3c.22,1,.41,1.51.57,1.51s.27-.41.41-1.23l.69-4.58a34.49,34.49,0,0,1,1.05-5.1,13.48,13.48,0,0,1,3.23-6,6.06,6.06,0,0,1,4.17-2q5.56,0,5.56,10.4A55.36,55.36,0,0,1,298,363.72Zm11.77,26.79h-.25l.18,0,.55-.1h.16Zm7.18-47.06h-3.57v31.33a.89.89,0,0,1-.88.88H304a.89.89,0,0,1-.88-.88V343.45h-3.62a2.06,2.06,0,1,1,0-1.76H304a.88.88,0,0,1,.88.88V373.9h6.76V342.57a.88.88,0,0,1,.88-.88h4.45a2.11,2.11,0,1,1,0,1.76Zm2.44,20.94-.05-.22a.67.67,0,0,0,.13.17Zm.52,1.12c0-.05-.24-.46,0-.11C319.89,365.45,320.23,366,319.88,365.51Zm9.76,7.95c-.55,0-.12-.11-.61-.13-.13-.05.4,0,.27,0l-.16,0,.16,0C329.63,373.38,329.8,373.38,329.64,373.46Zm15.05,6.31.1-.22,0,.2Zm1.45.06L346,380l-.36.06.12-.63.32.15.17.17Zm2.7-12.64h0c0-.06.07-.12.17-.26Zm2.3,13.18.21,0-.06.18h0l.05,0-.33,0,.12-.12Zm0-17.37,0-.17.05.09Zm3.25-7.08.25-.24.31.15-.12.12-.14,0-.14,0Z"/><path class="cls-3" d="M342.08,372.28s.1,0,.21,0a1.54,1.54,0,0,0,.19-.17l-.12,0Z"/></svg>